<svg xmlns="http://www.w3.org/2000/svg" width="780" height="1010" viewBox="0 0 780 1010">
<rect width="780" height="1010" fill="#ffffff"/>
<defs><marker id="m" markerWidth="8" markerHeight="8" refX="7" refY="4" orient="auto"><path d="M0,0 L8,4 L0,8 z" fill="#6a737d"/></marker></defs>
<text x="24" y="30" font-family="SFMono-Regular,Consolas,Menlo,monospace" font-size="15" fill="#1f2328" text-anchor="start" font-weight="bold">the whole architecture — gpt() from train3.py to train5.py</text>
<text x="24" y="50" font-family="SFMono-Regular,Consolas,Menlo,monospace" font-size="12" fill="#6a737d" text-anchor="start">this course's dials: vocab 38 · dims 16 · context 40 · 4 heads · 1 layer · 4,928 params</text>
<rect x="150.0" y="76" width="140" height="40" fill="#ffffff" stroke="#1f2328" stroke-width="1.2" rx="8"/>
<text x="220.0" y="100" font-family="SFMono-Regular,Consolas,Menlo,monospace" font-size="12.5" fill="#1f2328" text-anchor="middle">token id</text>
<rect x="310.0" y="76" width="140" height="40" fill="#ffffff" stroke="#1f2328" stroke-width="1.2" rx="8"/>
<text x="380.0" y="100" font-family="SFMono-Regular,Consolas,Menlo,monospace" font-size="12.5" fill="#1f2328" text-anchor="middle">position id</text>
<line x1="220.0" y1="116" x2="220.0" y2="139" stroke="#6a737d" stroke-width="1.4" marker-end="url(#m)"/>
<line x1="380.0" y1="116" x2="380.0" y2="139" stroke="#6a737d" stroke-width="1.4" marker-end="url(#m)"/>
<rect x="150.0" y="144" width="140" height="40" fill="#ffffff" stroke="#1f2328" stroke-width="1.2" rx="8"/>
<text x="220.0" y="168" font-family="SFMono-Regular,Consolas,Menlo,monospace" font-size="12" fill="#1f2328" text-anchor="middle">wte row (16)</text>
<rect x="310.0" y="144" width="140" height="40" fill="#ffffff" stroke="#1f2328" stroke-width="1.2" rx="8"/>
<text x="380.0" y="168" font-family="SFMono-Regular,Consolas,Menlo,monospace" font-size="12" fill="#1f2328" text-anchor="middle">wpe row (16)</text>
<text x="512.0" y="168" font-family="SFMono-Regular,Consolas,Menlo,monospace" font-size="11.5" fill="#6a737d" text-anchor="start">wte 608 + wpe 640 params</text>
<line x1="220.0" y1="184" x2="296" y2="216" stroke="#6a737d" stroke-width="1.3" marker-end="url(#m)"/>
<line x1="380.0" y1="184" x2="304" y2="216" stroke="#6a737d" stroke-width="1.3" marker-end="url(#m)"/>
<circle cx="300" cy="228" r="11" fill="#ffffff" stroke="#1f2328" stroke-width="1.4"/>
<text x="300" y="232.5" font-family="SFMono-Regular,Consolas,Menlo,monospace" font-size="14" fill="#1f2328" text-anchor="middle" font-weight="bold">+</text>
<line x1="300" y1="239" x2="300" y2="257" stroke="#6a737d" stroke-width="1.4" marker-end="url(#m)"/>
<rect x="150.0" y="262" width="300" height="34" fill="#ffffff" stroke="#1f2328" stroke-width="1.3" rx="9"/>
<text x="300" y="284" font-family="SFMono-Regular,Consolas,Menlo,monospace" font-size="13" fill="#1f2328" text-anchor="middle" font-weight="bold">rmsnorm</text>
<line x1="300" y1="296" x2="300" y2="315" stroke="#6a737d" stroke-width="1.4" marker-end="url(#m)"/>
<rect x="110.0" y="320" width="380" height="420" fill="none" stroke="#6a737d" stroke-width="1.1" stroke-dasharray="6,4" rx="12"/>
<text x="300" y="344" font-family="SFMono-Regular,Consolas,Menlo,monospace" font-size="11" fill="#6a737d" text-anchor="middle">transformer block — the for-li layer loop (x1 here, x96 in production)</text>
<rect x="150.0" y="360" width="300" height="34" fill="#ffffff" stroke="#1f2328" stroke-width="1.3" rx="9"/>
<text x="300" y="382" font-family="SFMono-Regular,Consolas,Menlo,monospace" font-size="13" fill="#1f2328" text-anchor="middle" font-weight="bold">rmsnorm</text>
<line x1="300" y1="394" x2="300" y2="413" stroke="#6a737d" stroke-width="1.4" marker-end="url(#m)"/>
<rect x="150.0" y="418" width="300" height="74" fill="#ffffff" stroke="#1f2328" stroke-width="1.3" rx="9"/>
<text x="300" y="440" font-family="SFMono-Regular,Consolas,Menlo,monospace" font-size="13" fill="#1f2328" text-anchor="middle" font-weight="bold">attention — communicate</text>
<text x="300" y="458" font-family="SFMono-Regular,Consolas,Menlo,monospace" font-size="11" fill="#6a737d" text-anchor="middle">q-k match -> softmax -> weighted v</text>
<text x="300" y="476" font-family="SFMono-Regular,Consolas,Menlo,monospace" font-size="10.5" fill="#0969da" text-anchor="middle">4 heads · keys/values lists = the KV cache</text>
<text x="512.0" y="452" font-family="SFMono-Regular,Consolas,Menlo,monospace" font-size="11.5" fill="#6a737d" text-anchor="start">wq wk wv wo: 1,024 params</text>
<line x1="300" y1="492" x2="300" y2="511" stroke="#6a737d" stroke-width="1.4" marker-end="url(#m)"/>
<circle cx="300" cy="526" r="11" fill="#ffffff" stroke="#1f2328" stroke-width="1.4"/>
<text x="300" y="530.5" font-family="SFMono-Regular,Consolas,Menlo,monospace" font-size="14" fill="#1f2328" text-anchor="middle" font-weight="bold">+</text>
<path d="M 300 356 C 470.0 356, 470.0 526, 312 526" fill="none" stroke="#0969da" stroke-width="1.4" marker-end="url(#m)"/>
<text x="476.0" y="530" font-family="SFMono-Regular,Consolas,Menlo,monospace" font-size="10.5" fill="#0969da" text-anchor="start">residual</text>
<line x1="300" y1="537" x2="300" y2="555" stroke="#6a737d" stroke-width="1.4" marker-end="url(#m)"/>
<rect x="150.0" y="560" width="300" height="34" fill="#ffffff" stroke="#1f2328" stroke-width="1.3" rx="9"/>
<text x="300" y="582" font-family="SFMono-Regular,Consolas,Menlo,monospace" font-size="13" fill="#1f2328" text-anchor="middle" font-weight="bold">rmsnorm</text>
<line x1="300" y1="594" x2="300" y2="613" stroke="#6a737d" stroke-width="1.4" marker-end="url(#m)"/>
<rect x="150.0" y="618" width="300" height="74" fill="#ffffff" stroke="#1f2328" stroke-width="1.3" rx="9"/>
<text x="300" y="640" font-family="SFMono-Regular,Consolas,Menlo,monospace" font-size="13" fill="#1f2328" text-anchor="middle" font-weight="bold">MLP — compute</text>
<text x="300" y="658" font-family="SFMono-Regular,Consolas,Menlo,monospace" font-size="11" fill="#6a737d" text-anchor="middle">linear 16->64 -> ReLU -> linear 64->16</text>
<text x="512.0" y="652" font-family="SFMono-Regular,Consolas,Menlo,monospace" font-size="11.5" fill="#6a737d" text-anchor="start">fc1 + fc2: 2,048 params</text>
<line x1="300" y1="692" x2="300" y2="709" stroke="#6a737d" stroke-width="1.4" marker-end="url(#m)"/>
<circle cx="300" cy="724" r="11" fill="#ffffff" stroke="#1f2328" stroke-width="1.4"/>
<text x="300" y="728.5" font-family="SFMono-Regular,Consolas,Menlo,monospace" font-size="14" fill="#1f2328" text-anchor="middle" font-weight="bold">+</text>
<path d="M 300 556 C 470.0 556, 470.0 724, 312 724" fill="none" stroke="#0969da" stroke-width="1.4" marker-end="url(#m)"/>
<text x="476.0" y="728" font-family="SFMono-Regular,Consolas,Menlo,monospace" font-size="10.5" fill="#0969da" text-anchor="start">residual</text>
<line x1="300" y1="735" x2="300" y2="759" stroke="#6a737d" stroke-width="1.4" marker-end="url(#m)"/>
<rect x="150.0" y="764" width="300" height="40" fill="#ffffff" stroke="#1f2328" stroke-width="1.3" rx="9"/>
<text x="300" y="786" font-family="SFMono-Regular,Consolas,Menlo,monospace" font-size="13" fill="#1f2328" text-anchor="middle" font-weight="bold">lm_head</text>
<text x="300" y="804" font-family="SFMono-Regular,Consolas,Menlo,monospace" font-size="11" fill="#6a737d" text-anchor="middle">16 -> 38 scores, one per token</text>
<text x="512.0" y="788" font-family="SFMono-Regular,Consolas,Menlo,monospace" font-size="11.5" fill="#6a737d" text-anchor="start">lm_head: 608 params</text>
<line x1="300" y1="804" x2="300" y2="823" stroke="#6a737d" stroke-width="1.4" marker-end="url(#m)"/>
<rect x="150.0" y="828" width="300" height="40" fill="#ffffff" stroke="#1f2328" stroke-width="1.3" rx="9"/>
<text x="300" y="850" font-family="SFMono-Regular,Consolas,Menlo,monospace" font-size="13" fill="#1f2328" text-anchor="middle" font-weight="bold">softmax -> probabilities</text>
<line x1="300" y1="868" x2="300" y2="887" stroke="#6a737d" stroke-width="1.4" marker-end="url(#m)"/>
<rect x="150.0" y="892" width="300" height="40" fill="#ffffff" stroke="#1f2328" stroke-width="1.3" rx="9"/>
<text x="300" y="914" font-family="SFMono-Regular,Consolas,Menlo,monospace" font-size="13" fill="#1f2328" text-anchor="middle" font-weight="bold">sample the next token</text>
<text x="300" y="932" font-family="SFMono-Regular,Consolas,Menlo,monospace" font-size="11" fill="#6a737d" text-anchor="middle">append it, move to the next position</text>
<path d="M 450.0 912 C 734 912, 734 96, 452.0 96" fill="none" stroke="#6a737d" stroke-width="1.2" stroke-dasharray="4,3" marker-end="url(#m)"/>
<text x="740" y="500" font-family="SFMono-Regular,Consolas,Menlo,monospace" font-size="11" fill="#6a737d" text-anchor="end">repeat</text>
<text x="300" y="980" font-family="SFMono-Regular,Consolas,Menlo,monospace" font-size="12" fill="#1f2328" text-anchor="middle" font-weight="bold">total: 4,928 parameters — every box above is a list of plain Python floats</text>
</svg>