<svg xmlns="http://www.w3.org/2000/svg" width="560" height="540" viewBox="0 0 560 540">
<rect width="560" height="540" fill="#ffffff"/>
<text x="20" y="26" font-family="SFMono-Regular,Consolas,Menlo,monospace" font-size="14.5" fill="#1f2328" text-anchor="start" font-weight="bold">the by-hand graph, drawn: L = (relu(a*b + 8) - 5)^2</text>
<text x="20" y="44" font-family="SFMono-Regular,Consolas,Menlo,monospace" font-size="11.5" fill="#6a737d" text-anchor="start">black: value computed forward · red: gradient dL/dnode, filled by one backward()</text>
<line x1="320" y1="105.0" x2="320" y2="143.0" stroke="#d8dee4" stroke-width="1.6"/>
<line x1="320" y1="187.0" x2="210" y2="225.0" stroke="#d8dee4" stroke-width="1.6"/>
<line x1="320" y1="187.0" x2="430" y2="225.0" stroke="#d8dee4" stroke-width="1.6"/>
<line x1="210" y1="269.0" x2="210" y2="307.0" stroke="#d8dee4" stroke-width="1.6"/>
<line x1="210" y1="351.0" x2="110" y2="389.0" stroke="#d8dee4" stroke-width="1.6"/>
<line x1="210" y1="351.0" x2="320" y2="389.0" stroke="#d8dee4" stroke-width="1.6"/>
<line x1="110" y1="433.0" x2="60" y2="471.0" stroke="#d8dee4" stroke-width="1.6"/>
<line x1="110" y1="433.0" x2="190" y2="471.0" stroke="#d8dee4" stroke-width="1.6"/>
<rect x="267.0" y="64" width="106" height="46" fill="#ffffff" stroke="#1f2328" stroke-width="2" rx="8"/>
<text x="277.0" y="83" font-family="SFMono-Regular,Consolas,Menlo,monospace" font-size="12.5" fill="#1f2328" text-anchor="start" font-weight="bold">L +9</text>
<text x="277.0" y="101" font-family="SFMono-Regular,Consolas,Menlo,monospace" font-size="12" fill="#cf222e" text-anchor="start">grad +1</text>
<rect x="267.0" y="146" width="106" height="46" fill="#ffffff" stroke="#1f2328" stroke-width="1.2" rx="8"/>
<text x="277.0" y="165" font-family="SFMono-Regular,Consolas,Menlo,monospace" font-size="12.5" fill="#1f2328" text-anchor="start">diff -3</text>
<text x="277.0" y="183" font-family="SFMono-Regular,Consolas,Menlo,monospace" font-size="12" fill="#cf222e" text-anchor="start">grad -6</text>
<rect x="157.0" y="228" width="106" height="46" fill="#ffffff" stroke="#1f2328" stroke-width="1.2" rx="8"/>
<text x="167.0" y="247" font-family="SFMono-Regular,Consolas,Menlo,monospace" font-size="12.5" fill="#1f2328" text-anchor="start">relu +2</text>
<text x="167.0" y="265" font-family="SFMono-Regular,Consolas,Menlo,monospace" font-size="12" fill="#cf222e" text-anchor="start">grad -6</text>
<rect x="377.0" y="228" width="106" height="46" fill="#ffffff" stroke="#1f2328" stroke-width="1.2" rx="8"/>
<text x="387.0" y="247" font-family="SFMono-Regular,Consolas,Menlo,monospace" font-size="12.5" fill="#1f2328" text-anchor="start">const -5</text>
<text x="387.0" y="265" font-family="SFMono-Regular,Consolas,Menlo,monospace" font-size="12" fill="#cf222e" text-anchor="start">grad -6</text>
<rect x="157.0" y="310" width="106" height="46" fill="#ffffff" stroke="#1f2328" stroke-width="1.2" rx="8"/>
<text x="167.0" y="329" font-family="SFMono-Regular,Consolas,Menlo,monospace" font-size="12.5" fill="#1f2328" text-anchor="start">sum +2</text>
<text x="167.0" y="347" font-family="SFMono-Regular,Consolas,Menlo,monospace" font-size="12" fill="#cf222e" text-anchor="start">grad -6</text>
<rect x="57.0" y="392" width="106" height="46" fill="#ffffff" stroke="#1f2328" stroke-width="1.2" rx="8"/>
<text x="67.0" y="411" font-family="SFMono-Regular,Consolas,Menlo,monospace" font-size="12.5" fill="#1f2328" text-anchor="start">a*b -6</text>
<text x="67.0" y="429" font-family="SFMono-Regular,Consolas,Menlo,monospace" font-size="12" fill="#cf222e" text-anchor="start">grad -6</text>
<rect x="267.0" y="392" width="106" height="46" fill="#ffffff" stroke="#1f2328" stroke-width="1.2" rx="8"/>
<text x="277.0" y="411" font-family="SFMono-Regular,Consolas,Menlo,monospace" font-size="12.5" fill="#1f2328" text-anchor="start">const +8</text>
<text x="277.0" y="429" font-family="SFMono-Regular,Consolas,Menlo,monospace" font-size="12" fill="#cf222e" text-anchor="start">grad -6</text>
<rect x="7.0" y="474" width="106" height="46" fill="#ffffff" stroke="#0969da" stroke-width="2" rx="8"/>
<text x="17.0" y="493" font-family="SFMono-Regular,Consolas,Menlo,monospace" font-size="12.5" fill="#1f2328" text-anchor="start" font-weight="bold">a +2</text>
<text x="17.0" y="511" font-family="SFMono-Regular,Consolas,Menlo,monospace" font-size="12" fill="#cf222e" text-anchor="start">grad +18</text>
<rect x="137.0" y="474" width="106" height="46" fill="#ffffff" stroke="#0969da" stroke-width="2" rx="8"/>
<text x="147.0" y="493" font-family="SFMono-Regular,Consolas,Menlo,monospace" font-size="12.5" fill="#1f2328" text-anchor="start" font-weight="bold">b -3</text>
<text x="147.0" y="511" font-family="SFMono-Regular,Consolas,Menlo,monospace" font-size="12" fill="#cf222e" text-anchor="start">grad -12</text>
</svg>