<svg xmlns="http://www.w3.org/2000/svg" width="800" height="214" viewBox="0 0 800 214">
<rect width="800" height="214" fill="#ffffff"/>
<defs><marker id="a" markerWidth="8" markerHeight="8" refX="7" refY="4" orient="auto"><path d="M0,0 L8,4 L0,8 z" fill="#6a737d"/></marker></defs>
<text x="24" y="32" font-family="SFMono-Regular,Consolas,Menlo,monospace" font-size="15" fill="#1f2328" text-anchor="start" font-weight="bold">the pipeline — data in, babble out; every rung upgrades one part</text>
<rect x="24" y="96" width="104" height="46" fill="none" stroke="#1f2328" stroke-width="1.3" rx="8"/>
<text x="76.0" y="124" font-family="SFMono-Regular,Consolas,Menlo,monospace" font-size="13.5" fill="#1f2328" text-anchor="middle">docs</text>
<text x="76.0" y="160" font-family="SFMono-Regular,Consolas,Menlo,monospace" font-size="10.5" fill="#6a737d" text-anchor="middle">511 idea names</text>
<line x1="128" y1="119.0" x2="144" y2="119.0" stroke="#6a737d" stroke-width="1.3" marker-end="url(#a)"/>
<rect x="146" y="96" width="104" height="46" fill="none" stroke="#1f2328" stroke-width="1.3" rx="8"/>
<text x="198.0" y="124" font-family="SFMono-Regular,Consolas,Menlo,monospace" font-size="13.5" fill="#1f2328" text-anchor="middle">tokenize</text>
<text x="198.0" y="160" font-family="SFMono-Regular,Consolas,Menlo,monospace" font-size="10.5" fill="#6a737d" text-anchor="middle">chars -> ids</text>
<line x1="250" y1="119.0" x2="266" y2="119.0" stroke="#6a737d" stroke-width="1.3" marker-end="url(#a)"/>
<rect x="268" y="96" width="104" height="46" fill="none" stroke="#0969da" stroke-width="2" rx="8"/>
<text x="320.0" y="124" font-family="SFMono-Regular,Consolas,Menlo,monospace" font-size="13.5" fill="#0969da" text-anchor="middle" font-weight="bold">model</text>
<text x="320.0" y="160" font-family="SFMono-Regular,Consolas,Menlo,monospace" font-size="10.5" fill="#6a737d" text-anchor="middle">the box that grows</text>
<line x1="372" y1="119.0" x2="388" y2="119.0" stroke="#6a737d" stroke-width="1.3" marker-end="url(#a)"/>
<rect x="390" y="96" width="104" height="46" fill="none" stroke="#1f2328" stroke-width="1.3" rx="8"/>
<text x="442.0" y="124" font-family="SFMono-Regular,Consolas,Menlo,monospace" font-size="13.5" fill="#1f2328" text-anchor="middle">loss</text>
<text x="442.0" y="160" font-family="SFMono-Regular,Consolas,Menlo,monospace" font-size="10.5" fill="#6a737d" text-anchor="middle">surprise</text>
<line x1="494" y1="119.0" x2="510" y2="119.0" stroke="#6a737d" stroke-width="1.3" marker-end="url(#a)"/>
<rect x="512" y="96" width="104" height="46" fill="none" stroke="#1f2328" stroke-width="1.3" rx="8"/>
<text x="564.0" y="124" font-family="SFMono-Regular,Consolas,Menlo,monospace" font-size="13.5" fill="#1f2328" text-anchor="middle">update</text>
<text x="564.0" y="160" font-family="SFMono-Regular,Consolas,Menlo,monospace" font-size="10.5" fill="#6a737d" text-anchor="middle">step params</text>
<line x1="616" y1="119.0" x2="632" y2="119.0" stroke="#6a737d" stroke-width="1.3" marker-end="url(#a)"/>
<rect x="634" y="96" width="104" height="46" fill="none" stroke="#1f2328" stroke-width="1.3" rx="8"/>
<text x="686.0" y="124" font-family="SFMono-Regular,Consolas,Menlo,monospace" font-size="13.5" fill="#1f2328" text-anchor="middle">sample</text>
<text x="686.0" y="160" font-family="SFMono-Regular,Consolas,Menlo,monospace" font-size="10.5" fill="#6a737d" text-anchor="middle">babble new names</text>
<path d="M 564.0 88 C 564.0 58, 320.0 58, 320.0 88" fill="none" stroke="#6a737d" stroke-width="1.2" stroke-dasharray="4,3" marker-end="url(#a)"/>
<text x="442.0" y="56" font-family="SFMono-Regular,Consolas,Menlo,monospace" font-size="10.5" fill="#6a737d" text-anchor="middle">next document</text>
</svg>