<svg xmlns="http://www.w3.org/2000/svg" width="860" height="320" viewBox="0 0 860 320">
<rect width="860" height="320" fill="#ffffff"/>
<text x="64" y="32" font-family="SFMono-Regular,Consolas,Menlo,monospace" font-size="15" fill="#1f2328" text-anchor="start" font-weight="bold">same model, same data, same steps — only the optimizer differs</text>
<text x="64" y="52" font-family="SFMono-Regular,Consolas,Menlo,monospace" font-size="12" fill="#6a737d" text-anchor="start">training loss, smoothed · SGD from train4, Adam from train5 · out/train*_losses.txt</text>
<line x1="64" y1="260.9" x2="796" y2="260.9" stroke="#d8dee4" stroke-width="1"/>
<text x="56" y="264.91545759349435" font-family="SFMono-Regular,Consolas,Menlo,monospace" font-size="11" fill="#6a737d" text-anchor="end">2.6</text>
<line x1="64" y1="203.4" x2="796" y2="203.4" stroke="#d8dee4" stroke-width="1"/>
<text x="56" y="207.41583837516436" font-family="SFMono-Regular,Consolas,Menlo,monospace" font-size="11" fill="#6a737d" text-anchor="end">2.9</text>
<line x1="64" y1="145.9" x2="796" y2="145.9" stroke="#d8dee4" stroke-width="1"/>
<text x="56" y="149.91621915683425" font-family="SFMono-Regular,Consolas,Menlo,monospace" font-size="11" fill="#6a737d" text-anchor="end">3.2</text>
<line x1="64" y1="88.4" x2="796" y2="88.4" stroke="#d8dee4" stroke-width="1"/>
<text x="56" y="92.41659993850423" font-family="SFMono-Regular,Consolas,Menlo,monospace" font-size="11" fill="#6a737d" text-anchor="end">3.5</text>
<polyline points="64.0,75.0 64.7,74.1 65.5,74.5 66.2,74.3 66.9,73.7 67.7,74.1 68.4,73.4 69.1,72.2 69.9,71.4 70.6,71.2 71.3,70.0 72.1,71.6 72.8,73.6 73.5,73.8 74.3,72.6 75.0,72.9 75.7,72.7 76.5,75.7 77.2,76.0 77.9,76.1 78.7,76.6 79.4,76.6 80.1,79.1 80.9,81.0 81.6,81.7 82.3,81.9 83.1,83.6 83.8,85.7 84.5,86.0 85.2,87.9 86.0,90.6 86.7,92.0 87.4,93.9 88.2,97.4 88.9,97.9 89.6,98.3 90.4,100.5 91.1,101.3 91.8,103.2 92.6,106.1 93.3,109.0 94.0,111.0 94.8,110.8 95.5,112.6 96.2,115.4 97.0,118.0 97.7,120.9 98.4,121.4 99.2,123.3 99.9,119.1 100.6,120.5 101.4,122.3 102.1,124.2 102.8,124.3 103.6,126.2 104.3,128.3 105.0,130.4 105.8,129.3 106.5,132.0 107.2,134.6 108.0,135.0 108.7,136.5 109.4,137.6 110.2,138.5 110.9,142.5 111.6,142.3 112.4,143.8 113.1,146.3 113.8,148.3 114.6,151.9 115.3,157.3 116.0,158.2 116.8,158.5 117.5,160.7 118.2,161.5 119.0,160.3 119.7,163.0 120.4,161.7 121.2,162.8 121.9,164.8 122.6,166.4 123.4,164.9 124.1,166.1 124.8,166.1 125.5,166.6 126.3,167.4 127.0,170.9 127.7,168.2 128.5,167.0 129.2,166.1 129.9,169.1 130.7,170.0 131.4,171.1 132.1,174.0 132.9,172.5 133.6,172.7 134.3,170.8 135.1,172.9 135.8,173.8 136.5,173.9 137.3,176.4 138.0,177.5 138.7,178.7 139.5,177.6 140.2,178.9 140.9,179.1 141.7,182.4 142.4,186.3 143.1,188.0 143.9,189.8 144.6,191.2 145.3,191.9 146.1,194.6 146.8,198.2 147.5,203.3 148.3,204.0 149.0,203.9 149.7,205.2 150.5,207.9 151.2,207.7 151.9,207.9 152.7,208.9 153.4,204.1 154.1,205.5 154.9,206.4 155.6,207.5 156.3,208.6 157.1,209.1 157.8,211.7 158.5,213.9 159.3,216.8 160.0,216.6 160.7,218.5 161.5,220.2 162.2,218.9 162.9,221.7 163.7,216.4 164.4,215.1 165.1,215.7 165.8,217.6 166.6,217.3 167.3,218.7 168.0,217.7 168.8,214.0 169.5,211.2 170.2,210.8 171.0,212.2 171.7,206.7 172.4,206.0 173.2,200.9 173.9,199.1 174.6,196.0 175.4,191.5 176.1,195.0 176.8,194.8 177.6,194.1 178.3,197.3 179.0,195.1 179.8,193.5 180.5,194.0 181.2,195.6 182.0,195.1 182.7,193.9 183.4,194.4 184.2,192.4 184.9,196.0 185.6,198.8 186.4,196.3 187.1,198.7 187.8,200.9 188.6,201.9 189.3,203.5 190.0,204.5 190.8,202.0 191.5,203.1 192.2,205.2 193.0,209.7 193.7,207.5 194.4,210.9 195.2,210.2 195.9,210.7 196.6,210.6 197.4,210.0 198.1,208.5 198.8,208.9 199.6,210.9 200.3,214.9 201.0,211.4 201.8,210.7 202.5,206.3 203.2,205.7 204.0,208.4 204.7,208.7 205.4,203.3 206.2,202.4 206.9,201.8 207.6,201.4 208.3,204.7 209.1,204.0 209.8,207.3 210.5,207.0 211.3,208.2 212.0,211.5 212.7,211.4 213.5,212.0 214.2,210.4 214.9,210.9 215.7,212.6 216.4,211.5 217.1,213.2 217.9,211.9 218.6,210.8 219.3,211.0 220.1,212.7 220.8,213.5 221.5,213.2 222.3,217.5 223.0,218.8 223.7,220.1 224.5,216.9 225.2,219.8 225.9,221.1 226.7,220.2 227.4,218.8 228.1,220.2 228.9,219.8 229.6,220.9 230.3,222.5 231.1,220.6 231.8,219.5 232.5,210.1 233.3,211.4 234.0,209.8 234.7,211.4 235.5,214.4 236.2,215.2 236.9,217.6 237.7,214.8 238.4,214.2 239.1,215.1 239.9,216.6 240.6,220.0 241.3,217.4 242.1,218.7 242.8,215.2 243.5,214.9 244.3,216.0 245.0,217.4 245.7,214.3 246.5,213.8 247.2,212.7 247.9,211.3 248.6,212.0 249.4,214.0 250.1,212.0 250.8,216.4 251.6,218.2 252.3,220.3 253.0,224.3 253.8,215.3 254.5,216.2 255.2,215.9 256.0,214.0 256.7,213.7 257.4,214.5 258.2,212.7 258.9,213.5 259.6,211.5 260.4,201.4 261.1,204.4 261.8,201.4 262.6,198.6 263.3,194.9 264.0,196.5 264.8,197.2 265.5,197.3 266.2,195.3 267.0,193.9 267.7,197.4 268.4,199.7 269.2,203.4 269.9,205.0 270.6,205.5 271.4,201.9 272.1,199.4 272.8,194.0 273.6,194.3 274.3,193.3 275.0,193.8 275.8,195.0 276.5,196.9 277.2,196.0 278.0,197.6 278.7,198.2 279.4,201.1 280.2,202.7 280.9,202.5 281.6,201.4 282.4,200.7 283.1,202.0 283.8,203.6 284.6,201.3 285.3,205.3 286.0,205.3 286.8,206.2 287.5,207.3 288.2,207.6 288.9,209.0 289.7,210.6 290.4,207.6 291.1,209.8 291.9,212.3 292.6,211.9 293.3,212.2 294.1,215.0 294.8,209.1 295.5,207.0 296.3,207.1 297.0,205.8 297.7,205.3 298.5,206.5 299.2,207.4 299.9,208.5 300.7,208.6 301.4,200.6 302.1,198.8 302.9,197.2 303.6,198.0 304.3,201.5 305.1,193.4 305.8,195.7 306.5,196.3 307.3,197.3 308.0,200.1 308.7,200.0 309.5,202.2 310.2,194.6 310.9,199.1 311.7,200.4 312.4,202.4 313.1,207.0 313.9,207.9 314.6,207.5 315.3,206.8 316.1,209.3 316.8,212.4 317.5,210.8 318.3,214.1 319.0,210.8 319.7,207.5 320.5,210.7 321.2,202.8 321.9,204.6 322.7,204.0 323.4,206.1 324.1,207.2 324.9,209.3 325.6,210.3 326.3,211.3 327.1,210.8 327.8,212.2 328.5,215.3 329.2,215.6 330.0,215.2 330.7,213.1 331.4,215.3 332.2,215.9 332.9,216.6 333.6,215.6 334.4,215.1 335.1,214.7 335.8,214.5 336.6,213.0 337.3,214.5 338.0,215.4 338.8,214.7 339.5,215.9 340.2,211.5 341.0,211.6 341.7,213.9 342.4,215.0 343.2,208.7 343.9,212.3 344.6,212.4 345.4,212.4 346.1,212.4 346.8,208.4 347.6,208.8 348.3,211.5 349.0,216.2 349.8,217.8 350.5,219.1 351.2,213.4 352.0,210.1 352.7,210.4 353.4,211.4 354.2,213.6 354.9,215.4 355.6,217.7 356.4,220.5 357.1,218.7 357.8,217.7 358.6,218.9 359.3,219.7 360.0,218.5 360.8,219.2 361.5,220.3 362.2,213.1 363.0,214.2 363.7,210.7 364.4,213.0 365.2,213.0 365.9,205.9 366.6,203.5 367.4,204.9 368.1,206.4 368.8,209.1 369.5,211.1 370.3,213.2 371.0,212.8 371.7,215.0 372.5,216.0 373.2,217.1 373.9,219.5 374.7,218.4 375.4,217.0 376.1,215.2 376.9,217.3 377.6,218.5 378.3,215.1 379.1,218.3 379.8,216.0 380.5,216.0 381.3,216.0 382.0,219.4 382.7,216.4 383.5,221.3 384.2,220.2 384.9,219.1 385.7,218.9 386.4,219.9 387.1,219.1 387.9,218.8 388.6,218.3 389.3,219.4 390.1,219.9 390.8,222.7 391.5,223.8 392.3,224.6 393.0,222.4 393.7,224.4 394.5,226.5 395.2,226.6 395.9,225.5 396.7,226.0 397.4,223.1 398.1,225.8 398.9,223.7 399.6,222.6 400.3,219.8 401.1,219.9 401.8,223.9 402.5,221.5 403.3,223.1 404.0,218.3 404.7,219.5 405.5,221.1 406.2,222.1 406.9,223.1 407.7,224.8 408.4,219.9 409.1,220.0 409.8,221.5 410.6,222.8 411.3,223.4 412.0,215.8 412.8,214.4 413.5,216.6 414.2,215.5 415.0,215.6 415.7,214.6 416.4,217.9 417.2,219.1 417.9,218.7 418.6,215.8 419.4,216.1 420.1,216.3 420.8,217.0 421.6,216.0 422.3,217.8 423.0,218.4 423.8,220.0 424.5,220.4 425.2,219.5 426.0,223.7 426.7,218.2 427.4,215.3 428.2,218.1 428.9,221.7 429.6,225.7 430.4,226.1 431.1,229.2 431.8,229.6 432.6,228.3 433.3,230.1 434.0,232.4 434.8,232.0 435.5,230.0 436.2,228.4 437.0,227.2 437.7,227.8 438.4,230.2 439.2,229.6 439.9,231.9 440.6,231.7 441.4,234.0 442.1,232.9 442.8,232.6 443.6,233.3 444.3,232.3 445.0,234.2 445.8,237.3 446.5,237.9 447.2,235.6 448.0,230.0 448.7,229.2 449.4,228.9 450.2,230.4 450.9,231.5 451.6,231.5 452.3,228.0 453.1,228.5 453.8,226.7 454.5,229.2 455.3,227.9 456.0,225.9 456.7,221.2 457.5,215.1 458.2,216.5 458.9,215.8 459.7,218.3 460.4,216.1 461.1,216.7 461.9,218.1 462.6,218.3 463.3,215.6 464.1,216.9 464.8,219.9 465.5,216.2 466.3,216.5 467.0,218.3 467.7,219.4 468.5,224.1 469.2,222.4 469.9,224.1 470.7,225.4 471.4,227.5 472.1,228.4 472.9,233.2 473.6,233.0 474.3,231.6 475.1,234.7 475.8,232.1 476.5,228.8 477.3,231.9 478.0,229.5 478.7,228.7 479.5,231.8 480.2,232.9 480.9,229.9 481.7,230.1 482.4,230.5 483.1,231.2 483.9,232.7 484.6,235.0 485.3,225.5 486.1,226.1 486.8,225.1 487.5,228.0 488.3,229.2 489.0,229.0 489.7,232.9 490.5,231.5 491.2,231.7 491.9,229.5 492.6,232.2 493.4,232.9 494.1,232.3 494.8,234.5 495.6,237.5 496.3,238.3 497.0,237.2 497.8,238.1 498.5,238.2 499.2,241.6 500.0,245.5 500.7,246.2 501.4,247.1 502.2,248.0 502.9,246.9 503.6,249.4 504.4,252.7 505.1,257.1 505.8,256.6 506.6,256.4 507.3,257.3 508.0,259.6 508.8,258.9 509.5,258.1 510.2,260.4 511.0,255.2 511.7,257.1 512.4,257.2 513.2,258.0 513.9,257.9 514.6,257.3 515.4,258.0 516.1,260.7 516.8,263.1 517.6,263.1 518.3,265.1 519.0,265.8 519.8,263.3 520.5,265.9 521.2,259.0 522.0,256.5 522.7,257.0 523.4,259.5 524.2,258.1 524.9,258.6 525.6,257.1 526.4,255.3 527.1,252.2 527.8,252.3 528.6,253.4 529.3,247.7 530.0,246.6 530.8,242.0 531.5,238.4 532.2,234.5 532.9,230.2 533.7,233.6 534.4,233.2 535.1,231.4 535.9,232.8 536.6,230.9 537.3,229.7 538.1,229.2 538.8,229.1 539.5,228.9 540.3,227.9 541.0,228.6 541.7,223.9 542.5,227.8 543.2,231.7 543.9,229.1 544.7,231.3 545.4,233.3 546.1,234.2 546.9,235.9 547.6,236.6 548.3,233.2 549.1,233.0 549.8,235.5 550.5,239.0 551.3,236.6 552.0,240.7 552.7,240.3 553.5,239.4 554.2,239.7 554.9,239.5 555.7,237.7 556.4,238.2 557.1,240.6 557.9,244.1 558.6,242.3 559.3,240.4 560.1,234.7 560.8,234.6 561.5,237.5 562.3,238.2 563.0,233.4 563.7,231.7 564.5,230.7 565.2,231.4 565.9,235.4 566.7,235.9 567.4,237.4 568.1,236.7 568.9,239.3 569.6,242.9 570.3,243.8 571.1,244.2 571.8,243.4 572.5,243.5 573.2,244.3 574.0,244.5 574.7,245.0 575.4,242.9 576.2,241.3 576.9,241.3 577.6,242.5 578.4,243.6 579.1,241.7 579.8,246.7 580.6,246.3 581.3,247.2 582.0,243.2 582.8,246.8 583.5,248.4 584.2,248.2 585.0,246.9 585.7,248.1 586.4,247.2 587.2,247.3 587.9,249.2 588.6,248.5 589.4,246.9 590.1,235.0 590.8,237.4 591.6,237.6 592.3,239.8 593.0,243.0 593.8,243.4 594.5,245.3 595.2,242.0 596.0,241.9 596.7,242.8 597.4,243.7 598.2,246.3 598.9,243.6 599.6,245.5 600.4,241.6 601.1,241.1 601.8,242.0 602.6,242.6 603.3,242.8 604.0,241.0 604.8,239.6 605.5,238.6 606.2,239.4 607.0,241.1 607.7,238.5 608.4,242.7 609.2,244.6 609.9,246.6 610.6,249.9 611.4,240.1 612.1,240.1 612.8,239.5 613.5,237.6 614.3,238.4 615.0,238.8 615.7,237.1 616.5,237.6 617.2,236.3 617.9,230.6 618.7,232.8 619.4,230.6 620.1,227.3 620.9,223.7 621.6,226.5 622.3,226.9 623.1,226.6 623.8,226.3 624.5,224.1 625.3,227.3 626.0,229.2 626.7,233.0 627.5,234.3 628.2,234.9 628.9,231.3 629.7,228.9 630.4,224.8 631.1,225.2 631.9,223.0 632.6,222.9 633.3,223.1 634.1,225.3 634.8,224.3 635.5,225.5 636.3,225.6 637.0,227.9 637.7,229.2 638.5,228.4 639.2,228.3 639.9,227.0 640.7,228.2 641.4,229.4 642.1,227.3 642.9,231.7 643.6,231.3 644.3,232.3 645.1,234.8 645.8,234.5 646.5,236.6 647.3,237.0 648.0,233.6 648.7,235.7 649.5,238.3 650.2,238.5 650.9,238.7 651.7,240.6 652.4,236.1 653.1,234.0 653.8,233.8 654.6,233.5 655.3,231.8 656.0,231.7 656.8,233.1 657.5,234.2 658.2,234.9 659.0,226.0 659.7,224.2 660.4,221.4 661.2,222.1 661.9,226.7 662.6,218.6 663.4,221.0 664.1,220.2 664.8,221.3 665.6,223.3 666.3,222.8 667.0,224.3 667.8,216.4 668.5,221.2 669.2,222.4 670.0,223.8 670.7,228.3 671.4,229.7 672.2,229.0 672.9,228.5 673.6,231.6 674.4,233.9 675.1,231.8 675.8,235.7 676.6,233.1 677.3,229.4 678.0,231.9 678.8,223.6 679.5,225.4 680.2,224.3 681.0,226.9 681.7,227.9 682.4,228.9 683.2,229.9 683.9,230.1 684.6,230.3 685.4,232.4 686.1,235.7 686.8,235.2 687.6,234.9 688.3,233.5 689.0,235.0 689.8,235.2 690.5,237.4 691.2,235.4 692.0,235.0 692.7,235.6 693.4,235.7 694.2,234.2 694.9,235.5 695.6,236.0 696.3,235.1 697.1,235.6 697.8,231.6 698.5,232.1 699.3,233.9 700.0,234.7 700.7,230.5 701.5,234.3 702.2,233.8 702.9,232.9 703.7,232.8 704.4,228.3 705.1,228.7 705.9,230.5 706.6,235.6 707.3,236.3 708.1,237.4 708.8,231.2 709.5,227.8 710.3,229.2 711.0,230.0 711.7,232.4 712.5,233.8 713.2,235.2 713.9,238.2 714.7,236.5 715.4,235.9 716.1,236.9 716.9,238.0 717.6,236.4 718.3,237.1 719.1,238.7 719.8,233.6 720.5,235.2 721.3,230.1 722.0,231.9 722.7,232.0 723.5,224.4 724.2,220.7 724.9,222.2 725.7,224.0 726.4,227.4 727.1,228.8 727.9,231.2 728.6,230.6 729.3,232.0 730.1,232.4 730.8,233.7 731.5,235.9 732.3,234.8 733.0,234.0 733.7,232.3 734.5,235.0 735.2,236.2 735.9,233.7 736.6,237.1 737.4,234.3 738.1,234.5 738.8,235.9 739.6,238.5 740.3,236.7 741.0,240.4 741.8,238.8 742.5,237.4 743.2,237.6 744.0,238.7 744.7,237.4 745.4,236.8 746.2,235.9 746.9,236.8 747.6,237.2 748.4,239.8 749.1,240.4 749.8,241.0 750.6,239.0 751.3,241.3 752.0,243.0 752.8,242.8 753.5,242.0 754.2,243.2 755.0,240.2 755.7,242.1 756.4,240.9 757.2,240.7 757.9,238.8 758.6,238.6 759.4,242.1 760.1,239.8 760.8,241.5 761.6,236.7 762.3,238.3 763.0,240.4 763.8,241.2 764.5,242.4 765.2,243.2 766.0,238.0 766.7,238.1 767.4,239.4 768.2,240.7 768.9,240.9 769.6,233.1 770.4,231.5 771.1,233.7 771.8,232.0 772.6,232.4 773.3,230.2 774.0,233.1 774.8,234.7 775.5,234.7 776.2,232.5 776.9,232.9 777.7,232.9 778.4,234.4 779.1,234.0 779.9,235.9 780.6,237.4 781.3,238.4 782.1,239.4 782.8,237.4 783.5,241.3 784.3,237.0 785.0,233.3 785.7,235.8 786.5,239.5 787.2,243.4 787.9,243.4 788.7,246.3 789.4,247.2 790.1,246.2 790.9,247.8 791.6,249.8 792.3,250.3 793.1,248.5 793.8,246.2 794.5,244.3 795.3,245.0 796.0,246.7" fill="none" stroke="#6a737d" stroke-width="2.2"/>
<line x1="600" y1="76" x2="622" y2="76" stroke="#6a737d" stroke-width="3"/>
<text x="628" y="80" font-family="SFMono-Regular,Consolas,Menlo,monospace" font-size="12" fill="#6a737d" text-anchor="start" font-weight="bold">SGD (train4)</text>
<polyline points="64.0,75.0 64.7,74.2 65.5,75.3 66.2,75.4 66.9,74.0 67.7,75.8 68.4,75.5 69.1,74.0 69.9,76.5 70.6,78.4 71.3,78.6 72.1,81.9 72.8,86.9 73.5,88.2 74.3,88.3 75.0,88.0 75.7,91.4 76.5,95.2 77.2,97.0 77.9,97.8 78.7,100.4 79.4,102.6 80.1,107.4 80.9,112.4 81.6,115.4 82.3,117.8 83.1,120.9 83.8,125.4 84.5,124.7 85.2,128.4 86.0,132.5 86.7,134.2 87.4,137.4 88.2,142.4 88.9,142.0 89.6,141.8 90.4,140.2 91.1,140.7 91.8,141.7 92.6,144.0 93.3,146.9 94.0,148.9 94.8,148.7 95.5,151.7 96.2,152.3 97.0,154.7 97.7,156.5 98.4,156.5 99.2,156.1 99.9,150.5 100.6,152.9 101.4,155.2 102.1,157.4 102.8,156.2 103.6,158.3 104.3,159.8 105.0,161.0 105.8,160.3 106.5,162.2 107.2,165.4 108.0,163.7 108.7,165.0 109.4,165.9 110.2,166.9 110.9,171.7 111.6,170.3 112.4,173.0 113.1,174.7 113.8,175.7 114.6,178.2 115.3,183.7 116.0,183.4 116.8,183.5 117.5,187.1 118.2,186.7 119.0,181.9 119.7,184.6 120.4,183.5 121.2,184.2 121.9,186.6 122.6,187.2 123.4,185.8 124.1,187.2 124.8,184.9 125.5,185.3 126.3,187.1 127.0,191.0 127.7,184.0 128.5,183.2 129.2,181.9 129.9,185.1 130.7,186.4 131.4,187.2 132.1,190.6 132.9,189.8 133.6,191.8 134.3,189.8 135.1,192.5 135.8,193.0 136.5,192.0 137.3,195.1 138.0,196.6 138.7,197.4 139.5,196.6 140.2,198.0 140.9,197.9 141.7,201.4 142.4,205.6 143.1,206.2 143.9,206.7 144.6,206.9 145.3,207.8 146.1,210.7 146.8,213.8 147.5,219.5 148.3,220.0 149.0,220.3 149.7,221.0 150.5,224.2 151.2,225.3 151.9,224.7 152.7,226.6 153.4,216.5 154.1,219.5 154.9,219.9 155.6,220.6 156.3,221.6 157.1,221.7 157.8,223.9 158.5,227.2 159.3,228.8 160.0,228.6 160.7,231.5 161.5,232.9 162.2,231.4 162.9,235.0 163.7,227.0 164.4,225.9 165.1,226.3 165.8,228.7 166.6,227.4 167.3,228.4 168.0,225.8 168.8,222.2 169.5,220.0 170.2,220.5 171.0,221.4 171.7,215.5 172.4,214.3 173.2,210.3 173.9,208.6 174.6,205.1 175.4,201.4 176.1,204.3 176.8,204.3 177.6,202.8 178.3,206.3 179.0,204.6 179.8,203.9 180.5,203.4 181.2,204.2 182.0,203.5 182.7,205.1 183.4,204.8 184.2,204.0 184.9,206.5 185.6,209.7 186.4,205.7 187.1,208.2 187.8,209.1 188.6,209.2 189.3,211.0 190.0,211.6 190.8,208.6 191.5,207.5 192.2,210.9 193.0,214.9 193.7,214.1 194.4,218.6 195.2,218.8 195.9,219.3 196.6,218.5 197.4,216.7 198.1,215.1 198.8,217.3 199.6,219.5 200.3,223.9 201.0,219.2 201.8,217.2 202.5,212.3 203.2,211.2 204.0,214.0 204.7,215.3 205.4,211.5 206.2,210.9 206.9,210.1 207.6,209.1 208.3,213.9 209.1,214.5 209.8,217.5 210.5,217.6 211.3,218.8 212.0,222.6 212.7,222.8 213.5,222.8 214.2,221.3 214.9,222.8 215.7,225.2 216.4,224.2 217.1,226.2 217.9,224.6 218.6,222.7 219.3,221.6 220.1,223.2 220.8,224.6 221.5,223.7 222.3,228.8 223.0,228.3 223.7,229.8 224.5,225.8 225.2,229.6 225.9,231.6 226.7,232.0 227.4,231.4 228.1,233.2 228.9,230.7 229.6,230.8 230.3,232.1 231.1,231.4 231.8,229.2 232.5,216.1 233.3,218.4 234.0,217.4 234.7,219.3 235.5,220.7 236.2,221.4 236.9,223.1 237.7,219.3 238.4,220.6 239.1,221.2 239.9,222.7 240.6,225.2 241.3,223.0 242.1,224.7 242.8,221.5 243.5,222.2 244.3,222.7 245.0,224.0 245.7,222.0 246.5,219.8 247.2,218.9 247.9,215.5 248.6,216.5 249.4,218.7 250.1,217.8 250.8,222.9 251.6,225.5 252.3,228.0 253.0,232.7 253.8,223.1 254.5,222.8 255.2,223.7 256.0,221.8 256.7,221.1 257.4,222.7 258.2,221.0 258.9,222.1 259.6,218.0 260.4,203.1 261.1,207.1 261.8,204.5 262.6,202.2 263.3,198.0 264.0,201.1 264.8,201.9 265.5,202.5 266.2,202.0 267.0,200.9 267.7,204.6 268.4,207.4 269.2,209.1 269.9,211.0 270.6,212.9 271.4,210.0 272.1,209.2 272.8,205.1 273.6,205.4 274.3,204.8 275.0,204.4 275.8,206.6 276.5,207.8 277.2,206.3 278.0,209.2 278.7,209.2 279.4,212.4 280.2,213.5 280.9,212.8 281.6,211.0 282.4,210.0 283.1,211.4 283.8,212.2 284.6,209.4 285.3,213.2 286.0,212.9 286.8,212.9 287.5,214.3 288.2,215.0 288.9,216.4 289.7,217.3 290.4,213.4 291.1,215.7 291.9,218.6 292.6,218.5 293.3,219.6 294.1,223.1 294.8,216.7 295.5,215.1 296.3,215.2 297.0,215.5 297.7,213.0 298.5,213.4 299.2,215.0 299.9,215.7 300.7,217.0 301.4,210.1 302.1,209.7 302.9,207.6 303.6,208.1 304.3,211.4 305.1,202.9 305.8,205.6 306.5,204.6 307.3,205.8 308.0,209.0 308.7,208.1 309.5,209.7 310.2,199.6 310.9,203.5 311.7,205.0 312.4,206.8 313.1,211.2 313.9,212.8 314.6,212.9 315.3,212.1 316.1,215.3 316.8,218.5 317.5,216.1 318.3,219.5 319.0,217.8 319.7,215.8 320.5,219.0 321.2,209.7 321.9,210.1 322.7,209.4 323.4,211.6 324.1,212.2 324.9,214.5 325.6,215.9 326.3,216.9 327.1,219.1 327.8,221.8 328.5,224.6 329.2,225.0 330.0,223.9 330.7,224.7 331.4,226.6 332.2,227.0 332.9,226.6 333.6,225.1 334.4,224.3 335.1,224.0 335.8,223.6 336.6,223.2 337.3,224.6 338.0,225.5 338.8,224.9 339.5,225.3 340.2,220.8 341.0,221.6 341.7,224.1 342.4,224.5 343.2,221.2 343.9,224.5 344.6,224.5 345.4,223.7 346.1,224.1 346.8,219.0 347.6,218.7 348.3,220.8 349.0,225.2 349.8,226.2 350.5,227.3 351.2,221.3 352.0,218.4 352.7,220.7 353.4,221.0 354.2,223.2 354.9,223.7 355.6,226.2 356.4,229.1 357.1,226.6 357.8,225.1 358.6,227.8 359.3,227.9 360.0,226.7 360.8,228.0 361.5,229.4 362.2,217.8 363.0,219.6 363.7,214.7 364.4,217.5 365.2,217.9 365.9,210.8 366.6,207.6 367.4,209.9 368.1,211.6 368.8,215.0 369.5,217.3 370.3,219.0 371.0,219.8 371.7,222.0 372.5,222.9 373.2,223.4 373.9,226.1 374.7,225.3 375.4,224.6 376.1,221.6 376.9,224.0 377.6,225.8 378.3,221.7 379.1,225.8 379.8,224.6 380.5,224.0 381.3,222.2 382.0,226.1 382.7,222.4 383.5,226.6 384.2,226.0 384.9,225.2 385.7,226.2 386.4,227.3 387.1,226.3 387.9,227.4 388.6,226.5 389.3,227.8 390.1,228.1 390.8,230.6 391.5,232.3 392.3,233.4 393.0,230.3 393.7,232.3 394.5,234.6 395.2,235.9 395.9,235.9 396.7,236.6 397.4,233.7 398.1,235.7 398.9,232.7 399.6,230.1 400.3,229.1 401.1,228.5 401.8,233.2 402.5,231.4 403.3,234.1 404.0,228.4 404.7,229.5 405.5,231.1 406.2,231.0 406.9,232.0 407.7,233.3 408.4,228.1 409.1,228.0 409.8,228.9 410.6,229.7 411.3,231.0 412.0,221.8 412.8,220.1 413.5,222.8 414.2,222.3 415.0,221.7 415.7,222.5 416.4,224.7 417.2,226.3 417.9,225.3 418.6,221.7 419.4,222.9 420.1,223.3 420.8,223.7 421.6,223.6 422.3,226.0 423.0,225.6 423.8,227.0 424.5,227.3 425.2,225.2 426.0,228.2 426.7,223.6 427.4,220.8 428.2,223.8 428.9,227.8 429.6,231.3 430.4,232.0 431.1,234.6 431.8,236.7 432.6,234.6 433.3,236.9 434.0,239.4 434.8,239.3 435.5,237.7 436.2,236.9 437.0,235.9 437.7,237.5 438.4,239.6 439.2,239.8 439.9,241.7 440.6,241.8 441.4,243.6 442.1,242.5 442.8,242.3 443.6,243.0 444.3,242.2 445.0,244.0 445.8,246.3 446.5,247.3 447.2,245.9 448.0,238.0 448.7,238.1 449.4,237.9 450.2,239.7 450.9,240.9 451.6,241.4 452.3,238.6 453.1,238.9 453.8,237.7 454.5,240.4 455.3,239.2 456.0,238.9 456.7,233.9 457.5,228.0 458.2,229.2 458.9,228.1 459.7,230.2 460.4,227.4 461.1,227.5 461.9,228.3 462.6,228.9 463.3,226.8 464.1,227.6 464.8,231.3 465.5,227.8 466.3,227.9 467.0,229.9 467.7,230.8 468.5,235.4 469.2,234.1 469.9,237.1 470.7,238.2 471.4,238.7 472.1,239.8 472.9,244.7 473.6,244.2 474.3,241.5 475.1,245.8 475.8,240.6 476.5,235.7 477.3,238.7 478.0,237.2 478.7,236.5 479.5,240.7 480.2,241.9 480.9,240.8 481.7,241.5 482.4,242.5 483.1,243.3 483.9,245.3 484.6,247.6 485.3,234.3 486.1,236.0 486.8,235.9 487.5,237.7 488.3,238.6 489.0,238.7 489.7,242.4 490.5,241.5 491.2,241.7 491.9,239.6 492.6,242.4 493.4,242.8 494.1,243.1 494.8,245.7 495.6,249.2 496.3,249.7 497.0,249.4 497.8,250.4 498.5,251.9 499.2,255.4 500.0,259.6 500.7,259.5 501.4,261.0 502.2,261.3 502.9,260.6 503.6,262.5 504.4,265.4 505.1,270.0 505.8,268.0 506.6,268.7 507.3,269.8 508.0,271.7 508.8,271.3 509.5,270.1 510.2,271.9 511.0,267.3 511.7,269.6 512.4,268.4 513.2,270.5 513.9,271.2 514.6,271.5 515.4,272.3 516.1,275.1 516.8,277.8 517.6,278.1 518.3,279.7 519.0,280.0 519.8,276.7 520.5,279.8 521.2,272.5 522.0,270.2 522.7,270.1 523.4,273.2 524.2,271.9 524.9,272.3 525.6,269.8 526.4,269.5 527.1,266.8 527.8,266.9 528.6,268.2 529.3,259.9 530.0,259.2 530.8,250.9 531.5,248.0 532.2,242.6 532.9,237.7 533.7,241.7 534.4,241.3 535.1,238.5 535.9,239.6 536.6,237.9 537.3,236.6 538.1,234.9 538.8,234.1 539.5,233.8 540.3,234.3 541.0,234.8 541.7,231.1 542.5,234.9 543.2,239.5 543.9,237.7 544.7,240.1 545.4,242.0 546.1,243.0 546.9,245.9 547.6,247.5 548.3,243.3 549.1,241.9 549.8,244.5 550.5,248.0 551.3,245.2 552.0,249.7 552.7,249.2 553.5,247.9 554.2,248.4 554.9,247.9 555.7,246.4 556.4,247.4 557.1,250.6 557.9,254.1 558.6,254.2 559.3,253.3 560.1,246.2 560.8,247.1 561.5,249.3 562.3,251.6 563.0,247.0 563.7,246.1 564.5,245.2 565.2,246.7 565.9,251.2 566.7,252.9 567.4,253.9 568.1,253.3 568.9,255.7 569.6,259.8 570.3,260.0 571.1,259.8 571.8,259.8 572.5,261.4 573.2,262.9 574.0,263.3 574.7,263.9 575.4,261.0 576.2,258.8 576.9,257.2 577.6,258.0 578.4,258.3 579.1,255.7 579.8,261.4 580.6,260.5 581.3,260.9 582.0,256.4 582.8,260.3 583.5,263.2 584.2,263.5 585.0,263.1 585.7,264.6 586.4,263.0 587.2,262.4 587.9,264.2 588.6,265.9 589.4,265.4 590.1,247.6 590.8,249.9 591.6,250.4 592.3,252.7 593.0,254.6 593.8,255.7 594.5,257.7 595.2,254.6 596.0,256.7 596.7,258.0 597.4,258.9 598.2,260.8 598.9,258.3 599.6,259.8 600.4,257.0 601.1,256.9 601.8,256.7 602.6,257.1 603.3,257.3 604.0,254.0 604.8,252.8 605.5,249.9 606.2,250.4 607.0,251.9 607.7,249.7 608.4,254.5 609.2,257.0 609.9,259.1 610.6,263.2 611.4,252.2 612.1,251.9 612.8,251.9 613.5,250.1 614.3,251.1 615.0,252.1 615.7,251.3 616.5,251.6 617.2,250.1 617.9,241.9 618.7,244.3 619.4,241.1 620.1,239.2 620.9,235.3 621.6,240.1 622.3,241.6 623.1,241.6 623.8,239.8 624.5,238.3 625.3,242.5 626.0,243.8 626.7,246.5 627.5,248.2 628.2,249.3 628.9,245.6 629.7,244.3 630.4,240.8 631.1,240.9 631.9,240.5 632.6,240.6 633.3,240.8 634.1,243.0 634.8,243.0 635.5,245.0 636.3,244.1 637.0,246.6 637.7,247.2 638.5,246.0 639.2,245.5 639.9,244.7 640.7,246.2 641.4,244.8 642.1,242.0 642.9,246.4 643.6,246.2 644.3,246.7 645.1,249.7 645.8,249.7 646.5,251.6 647.3,251.6 648.0,248.7 648.7,250.7 649.5,253.1 650.2,252.6 650.9,253.7 651.7,255.8 652.4,252.8 653.1,250.5 653.8,251.7 654.6,252.2 655.3,247.7 656.0,247.4 656.8,249.1 657.5,249.3 658.2,250.1 659.0,241.0 659.7,239.5 660.4,237.7 661.2,238.1 661.9,243.1 662.6,233.3 663.4,236.2 664.1,234.9 664.8,236.8 665.6,238.9 666.3,236.5 667.0,237.2 667.8,228.8 668.5,233.8 669.2,235.1 670.0,236.4 670.7,240.8 671.4,243.4 672.2,242.5 672.9,242.2 673.6,246.6 674.4,249.6 675.1,246.6 675.8,251.1 676.6,249.1 677.3,246.7 678.0,250.3 678.8,244.5 679.5,245.0 680.2,244.3 681.0,246.5 681.7,245.5 682.4,246.5 683.2,247.8 683.9,248.1 684.6,249.3 685.4,251.8 686.1,254.8 686.8,253.7 687.6,252.8 688.3,253.7 689.0,254.5 689.8,254.2 690.5,256.9 691.2,255.2 692.0,254.3 692.7,256.3 693.4,255.8 694.2,254.9 694.9,255.9 695.6,256.1 696.3,255.8 697.1,255.0 697.8,252.0 698.5,252.9 699.3,254.5 700.0,254.6 700.7,252.6 701.5,256.0 702.2,254.9 702.9,253.0 703.7,252.7 704.4,246.9 705.1,246.5 705.9,246.7 706.6,251.1 707.3,251.6 708.1,252.5 708.8,246.1 709.5,243.1 710.3,246.1 711.0,246.4 711.7,249.0 712.5,249.6 713.2,251.0 713.9,254.0 714.7,252.3 715.4,252.5 716.1,253.8 716.9,253.3 717.6,253.6 718.3,254.6 719.1,256.5 719.8,251.4 720.5,253.5 721.3,247.7 722.0,249.9 722.7,250.8 723.5,242.9 724.2,239.4 724.9,240.7 725.7,241.9 726.4,245.2 727.1,247.2 727.9,249.4 728.6,250.2 729.3,252.4 730.1,252.7 730.8,253.7 731.5,256.2 732.3,255.0 733.0,253.9 733.7,251.7 734.5,254.7 735.2,256.9 735.9,254.1 736.6,258.3 737.4,257.1 738.1,255.6 738.8,256.6 739.6,259.6 740.3,257.3 741.0,259.5 741.8,257.1 742.5,256.0 743.2,257.7 744.0,258.9 744.7,257.0 745.4,256.6 746.2,255.6 746.9,257.2 747.6,257.6 748.4,259.1 749.1,260.4 749.8,261.0 750.6,258.6 751.3,261.0 752.0,262.6 752.8,263.5 753.5,263.6 754.2,264.7 755.0,262.0 755.7,263.5 756.4,262.3 757.2,259.2 757.9,258.3 758.6,256.8 759.4,261.1 760.1,258.7 760.8,261.1 761.6,256.1 762.3,258.0 763.0,260.2 763.8,260.0 764.5,261.0 765.2,261.9 766.0,258.6 766.7,258.6 767.4,259.7 768.2,260.3 768.9,261.4 769.6,250.1 770.4,248.7 771.1,251.2 771.8,250.1 772.6,249.5 773.3,248.9 774.0,250.6 774.8,252.7 775.5,252.1 776.2,251.2 776.9,252.1 777.7,251.9 778.4,253.3 779.1,252.3 779.9,254.4 780.6,256.1 781.3,257.1 782.1,256.8 782.8,253.8 783.5,256.7 784.3,253.3 785.0,250.9 785.7,253.3 786.5,256.5 787.2,260.1 787.9,260.6 788.7,262.6 789.4,264.6 790.1,263.6 790.9,265.9 791.6,268.7 792.3,269.9 793.1,268.1 793.8,266.0 794.5,263.9 795.3,265.6 796.0,267.1" fill="none" stroke="#cf222e" stroke-width="2.2"/>
<line x1="730" y1="76" x2="752" y2="76" stroke="#cf222e" stroke-width="3"/>
<text x="758" y="80" font-family="SFMono-Regular,Consolas,Menlo,monospace" font-size="12" fill="#cf222e" text-anchor="start" font-weight="bold">Adam (train5)</text>
<text x="804" y="250.66126066593912" font-family="SFMono-Regular,Consolas,Menlo,monospace" font-size="11.5" fill="#6a737d" text-anchor="start" font-weight="bold">2.67</text>
<text x="804" y="271.0531480241758" font-family="SFMono-Regular,Consolas,Menlo,monospace" font-size="11.5" fill="#cf222e" text-anchor="start" font-weight="bold">2.57</text>
<text x="64" y="308" font-family="SFMono-Regular,Consolas,Menlo,monospace" font-size="11" fill="#6a737d" text-anchor="start">step 1</text>
<text x="796" y="308" font-family="SFMono-Regular,Consolas,Menlo,monospace" font-size="11" fill="#6a737d" text-anchor="end">step 1000</text>
</svg>