<svg xmlns="http://www.w3.org/2000/svg" width="740" height="582" viewBox="0 0 740 582">
<rect width="740" height="582" fill="#ffffff"/>
<text x="28" y="32" font-family="SFMono-Regular,Consolas,Menlo,monospace" font-size="15" fill="#1f2328" text-anchor="start" font-weight="bold">where trained attention looked: 'test-time-training'</text>
<text x="28" y="52" font-family="SFMono-Regular,Consolas,Menlo,monospace" font-size="12" fill="#6a737d" text-anchor="start">row = position being predicted from, column = position it attends to</text>
<text x="28" y="68" font-family="SFMono-Regular,Consolas,Menlo,monospace" font-size="12" fill="#6a737d" text-anchor="start">darker = more weight (row-scaled) · note the ^ (BOS) column: an attention sink · runs/train3.log</text>
<text x="108.0" y="88" font-family="SFMono-Regular,Consolas,Menlo,monospace" font-size="12" fill="#cf222e" text-anchor="middle" font-weight="bold">^</text>
<text x="132.0" y="88" font-family="SFMono-Regular,Consolas,Menlo,monospace" font-size="12" fill="#6a737d" text-anchor="middle">t</text>
<text x="156.0" y="88" font-family="SFMono-Regular,Consolas,Menlo,monospace" font-size="12" fill="#6a737d" text-anchor="middle">e</text>
<text x="180.0" y="88" font-family="SFMono-Regular,Consolas,Menlo,monospace" font-size="12" fill="#6a737d" text-anchor="middle">s</text>
<text x="204.0" y="88" font-family="SFMono-Regular,Consolas,Menlo,monospace" font-size="12" fill="#6a737d" text-anchor="middle">t</text>
<text x="228.0" y="88" font-family="SFMono-Regular,Consolas,Menlo,monospace" font-size="12" fill="#6a737d" text-anchor="middle">-</text>
<text x="252.0" y="88" font-family="SFMono-Regular,Consolas,Menlo,monospace" font-size="12" fill="#6a737d" text-anchor="middle">t</text>
<text x="276.0" y="88" font-family="SFMono-Regular,Consolas,Menlo,monospace" font-size="12" fill="#6a737d" text-anchor="middle">i</text>
<text x="300.0" y="88" font-family="SFMono-Regular,Consolas,Menlo,monospace" font-size="12" fill="#6a737d" text-anchor="middle">m</text>
<text x="324.0" y="88" font-family="SFMono-Regular,Consolas,Menlo,monospace" font-size="12" fill="#6a737d" text-anchor="middle">e</text>
<text x="348.0" y="88" font-family="SFMono-Regular,Consolas,Menlo,monospace" font-size="12" fill="#6a737d" text-anchor="middle">-</text>
<text x="372.0" y="88" font-family="SFMono-Regular,Consolas,Menlo,monospace" font-size="12" fill="#6a737d" text-anchor="middle">t</text>
<text x="396.0" y="88" font-family="SFMono-Regular,Consolas,Menlo,monospace" font-size="12" fill="#6a737d" text-anchor="middle">r</text>
<text x="420.0" y="88" font-family="SFMono-Regular,Consolas,Menlo,monospace" font-size="12" fill="#6a737d" text-anchor="middle">a</text>
<text x="444.0" y="88" font-family="SFMono-Regular,Consolas,Menlo,monospace" font-size="12" fill="#6a737d" text-anchor="middle">i</text>
<text x="468.0" y="88" font-family="SFMono-Regular,Consolas,Menlo,monospace" font-size="12" fill="#6a737d" text-anchor="middle">n</text>
<text x="492.0" y="88" font-family="SFMono-Regular,Consolas,Menlo,monospace" font-size="12" fill="#6a737d" text-anchor="middle">i</text>
<text x="516.0" y="88" font-family="SFMono-Regular,Consolas,Menlo,monospace" font-size="12" fill="#6a737d" text-anchor="middle">n</text>
<text x="540.0" y="88" font-family="SFMono-Regular,Consolas,Menlo,monospace" font-size="12" fill="#6a737d" text-anchor="middle">g</text>
<text x="86" y="112" font-family="SFMono-Regular,Consolas,Menlo,monospace" font-size="12" fill="#6a737d" text-anchor="end">^</text>
<rect x="96" y="96" width="22" height="22" fill="#0969da" opacity="1.00" rx="2"/>
<text x="86" y="136" font-family="SFMono-Regular,Consolas,Menlo,monospace" font-size="12" fill="#6a737d" text-anchor="end">t</text>
<rect x="96" y="120" width="22" height="22" fill="#0969da" opacity="1.00" rx="2"/>
<rect x="120" y="120" width="22" height="22" fill="#0969da" opacity="1.00" rx="2"/>
<text x="86" y="160" font-family="SFMono-Regular,Consolas,Menlo,monospace" font-size="12" fill="#6a737d" text-anchor="end">e</text>
<rect x="96" y="144" width="22" height="22" fill="#0969da" opacity="0.79" rx="2"/>
<rect x="120" y="144" width="22" height="22" fill="#0969da" opacity="1.00" rx="2"/>
<rect x="144" y="144" width="22" height="22" fill="#0969da" opacity="0.79" rx="2"/>
<text x="86" y="184" font-family="SFMono-Regular,Consolas,Menlo,monospace" font-size="12" fill="#6a737d" text-anchor="end">s</text>
<rect x="96" y="168" width="22" height="22" fill="#0969da" opacity="1.00" rx="2"/>
<rect x="120" y="168" width="22" height="22" fill="#0969da" opacity="0.90" rx="2"/>
<rect x="144" y="168" width="22" height="22" fill="#0969da" opacity="0.90" rx="2"/>
<rect x="168" y="168" width="22" height="22" fill="#0969da" opacity="0.79" rx="2"/>
<text x="86" y="208" font-family="SFMono-Regular,Consolas,Menlo,monospace" font-size="12" fill="#6a737d" text-anchor="end">t</text>
<rect x="96" y="192" width="22" height="22" fill="#0969da" opacity="1.00" rx="2"/>
<rect x="120" y="192" width="22" height="22" fill="#0969da" opacity="1.00" rx="2"/>
<rect x="144" y="192" width="22" height="22" fill="#0969da" opacity="0.79" rx="2"/>
<rect x="168" y="192" width="22" height="22" fill="#0969da" opacity="0.79" rx="2"/>
<rect x="192" y="192" width="22" height="22" fill="#0969da" opacity="0.90" rx="2"/>
<text x="86" y="232" font-family="SFMono-Regular,Consolas,Menlo,monospace" font-size="12" fill="#6a737d" text-anchor="end">-</text>
<rect x="96" y="216" width="22" height="22" fill="#0969da" opacity="1.00" rx="2"/>
<rect x="120" y="216" width="22" height="22" fill="#0969da" opacity="1.00" rx="2"/>
<rect x="144" y="216" width="22" height="22" fill="#0969da" opacity="0.90" rx="2"/>
<rect x="168" y="216" width="22" height="22" fill="#0969da" opacity="1.00" rx="2"/>
<rect x="192" y="216" width="22" height="22" fill="#0969da" opacity="1.00" rx="2"/>
<rect x="216" y="216" width="22" height="22" fill="#0969da" opacity="1.00" rx="2"/>
<text x="86" y="256" font-family="SFMono-Regular,Consolas,Menlo,monospace" font-size="12" fill="#6a737d" text-anchor="end">t</text>
<rect x="96" y="240" width="22" height="22" fill="#0969da" opacity="1.00" rx="2"/>
<rect x="120" y="240" width="22" height="22" fill="#0969da" opacity="1.00" rx="2"/>
<rect x="144" y="240" width="22" height="22" fill="#0969da" opacity="0.90" rx="2"/>
<rect x="168" y="240" width="22" height="22" fill="#0969da" opacity="0.90" rx="2"/>
<rect x="192" y="240" width="22" height="22" fill="#0969da" opacity="1.00" rx="2"/>
<rect x="216" y="240" width="22" height="22" fill="#0969da" opacity="1.00" rx="2"/>
<rect x="240" y="240" width="22" height="22" fill="#0969da" opacity="0.90" rx="2"/>
<text x="86" y="280" font-family="SFMono-Regular,Consolas,Menlo,monospace" font-size="12" fill="#6a737d" text-anchor="end">i</text>
<rect x="96" y="264" width="22" height="22" fill="#0969da" opacity="0.79" rx="2"/>
<rect x="120" y="264" width="22" height="22" fill="#0969da" opacity="1.00" rx="2"/>
<rect x="144" y="264" width="22" height="22" fill="#0969da" opacity="0.79" rx="2"/>
<rect x="168" y="264" width="22" height="22" fill="#0969da" opacity="0.79" rx="2"/>
<rect x="192" y="264" width="22" height="22" fill="#0969da" opacity="1.00" rx="2"/>
<rect x="216" y="264" width="22" height="22" fill="#0969da" opacity="0.79" rx="2"/>
<rect x="240" y="264" width="22" height="22" fill="#0969da" opacity="1.00" rx="2"/>
<rect x="264" y="264" width="22" height="22" fill="#0969da" opacity="0.79" rx="2"/>
<text x="86" y="304" font-family="SFMono-Regular,Consolas,Menlo,monospace" font-size="12" fill="#6a737d" text-anchor="end">m</text>
<rect x="96" y="288" width="22" height="22" fill="#0969da" opacity="1.00" rx="2"/>
<rect x="120" y="288" width="22" height="22" fill="#0969da" opacity="1.00" rx="2"/>
<rect x="144" y="288" width="22" height="22" fill="#0969da" opacity="0.79" rx="2"/>
<rect x="168" y="288" width="22" height="22" fill="#0969da" opacity="0.90" rx="2"/>
<rect x="192" y="288" width="22" height="22" fill="#0969da" opacity="0.90" rx="2"/>
<rect x="216" y="288" width="22" height="22" fill="#0969da" opacity="0.90" rx="2"/>
<rect x="240" y="288" width="22" height="22" fill="#0969da" opacity="0.90" rx="2"/>
<rect x="264" y="288" width="22" height="22" fill="#0969da" opacity="0.90" rx="2"/>
<rect x="288" y="288" width="22" height="22" fill="#0969da" opacity="0.69" rx="2"/>
<text x="86" y="328" font-family="SFMono-Regular,Consolas,Menlo,monospace" font-size="12" fill="#6a737d" text-anchor="end">e</text>
<rect x="96" y="312" width="22" height="22" fill="#0969da" opacity="0.79" rx="2"/>
<rect x="120" y="312" width="22" height="22" fill="#0969da" opacity="1.00" rx="2"/>
<rect x="144" y="312" width="22" height="22" fill="#0969da" opacity="0.79" rx="2"/>
<rect x="168" y="312" width="22" height="22" fill="#0969da" opacity="0.79" rx="2"/>
<rect x="192" y="312" width="22" height="22" fill="#0969da" opacity="1.00" rx="2"/>
<rect x="216" y="312" width="22" height="22" fill="#0969da" opacity="0.79" rx="2"/>
<rect x="240" y="312" width="22" height="22" fill="#0969da" opacity="1.00" rx="2"/>
<rect x="264" y="312" width="22" height="22" fill="#0969da" opacity="0.79" rx="2"/>
<rect x="288" y="312" width="22" height="22" fill="#0969da" opacity="0.79" rx="2"/>
<rect x="312" y="312" width="22" height="22" fill="#0969da" opacity="0.90" rx="2"/>
<text x="86" y="352" font-family="SFMono-Regular,Consolas,Menlo,monospace" font-size="12" fill="#6a737d" text-anchor="end">-</text>
<rect x="96" y="336" width="22" height="22" fill="#0969da" opacity="1.00" rx="2"/>
<rect x="120" y="336" width="22" height="22" fill="#0969da" opacity="1.00" rx="2"/>
<rect x="144" y="336" width="22" height="22" fill="#0969da" opacity="0.90" rx="2"/>
<rect x="168" y="336" width="22" height="22" fill="#0969da" opacity="1.00" rx="2"/>
<rect x="192" y="336" width="22" height="22" fill="#0969da" opacity="1.00" rx="2"/>
<rect x="216" y="336" width="22" height="22" fill="#0969da" opacity="1.00" rx="2"/>
<rect x="240" y="336" width="22" height="22" fill="#0969da" opacity="1.00" rx="2"/>
<rect x="264" y="336" width="22" height="22" fill="#0969da" opacity="0.90" rx="2"/>
<rect x="288" y="336" width="22" height="22" fill="#0969da" opacity="1.00" rx="2"/>
<rect x="312" y="336" width="22" height="22" fill="#0969da" opacity="1.00" rx="2"/>
<rect x="336" y="336" width="22" height="22" fill="#0969da" opacity="1.00" rx="2"/>
<text x="86" y="376" font-family="SFMono-Regular,Consolas,Menlo,monospace" font-size="12" fill="#6a737d" text-anchor="end">t</text>
<rect x="96" y="360" width="22" height="22" fill="#0969da" opacity="1.00" rx="2"/>
<rect x="120" y="360" width="22" height="22" fill="#0969da" opacity="1.00" rx="2"/>
<rect x="144" y="360" width="22" height="22" fill="#0969da" opacity="0.90" rx="2"/>
<rect x="168" y="360" width="22" height="22" fill="#0969da" opacity="0.90" rx="2"/>
<rect x="192" y="360" width="22" height="22" fill="#0969da" opacity="1.00" rx="2"/>
<rect x="216" y="360" width="22" height="22" fill="#0969da" opacity="1.00" rx="2"/>
<rect x="240" y="360" width="22" height="22" fill="#0969da" opacity="1.00" rx="2"/>
<rect x="264" y="360" width="22" height="22" fill="#0969da" opacity="0.90" rx="2"/>
<rect x="288" y="360" width="22" height="22" fill="#0969da" opacity="1.00" rx="2"/>
<rect x="312" y="360" width="22" height="22" fill="#0969da" opacity="0.90" rx="2"/>
<rect x="336" y="360" width="22" height="22" fill="#0969da" opacity="1.00" rx="2"/>
<rect x="360" y="360" width="22" height="22" fill="#0969da" opacity="1.00" rx="2"/>
<text x="86" y="400" font-family="SFMono-Regular,Consolas,Menlo,monospace" font-size="12" fill="#6a737d" text-anchor="end">r</text>
<rect x="96" y="384" width="22" height="22" fill="#0969da" opacity="1.00" rx="2"/>
<rect x="120" y="384" width="22" height="22" fill="#0969da" opacity="0.79" rx="2"/>
<rect x="144" y="384" width="22" height="22" fill="#0969da" opacity="0.79" rx="2"/>
<rect x="168" y="384" width="22" height="22" fill="#0969da" opacity="0.79" rx="2"/>
<rect x="192" y="384" width="22" height="22" fill="#0969da" opacity="0.79" rx="2"/>
<rect x="216" y="384" width="22" height="22" fill="#0969da" opacity="0.90" rx="2"/>
<rect x="240" y="384" width="22" height="22" fill="#0969da" opacity="0.79" rx="2"/>
<rect x="264" y="384" width="22" height="22" fill="#0969da" opacity="1.00" rx="2"/>
<rect x="288" y="384" width="22" height="22" fill="#0969da" opacity="0.79" rx="2"/>
<rect x="312" y="384" width="22" height="22" fill="#0969da" opacity="0.79" rx="2"/>
<rect x="336" y="384" width="22" height="22" fill="#0969da" opacity="0.90" rx="2"/>
<rect x="360" y="384" width="22" height="22" fill="#0969da" opacity="0.79" rx="2"/>
<rect x="384" y="384" width="22" height="22" fill="#0969da" opacity="0.90" rx="2"/>
<text x="86" y="424" font-family="SFMono-Regular,Consolas,Menlo,monospace" font-size="12" fill="#6a737d" text-anchor="end">a</text>
<rect x="96" y="408" width="22" height="22" fill="#0969da" opacity="0.79" rx="2"/>
<rect x="120" y="408" width="22" height="22" fill="#0969da" opacity="1.00" rx="2"/>
<rect x="144" y="408" width="22" height="22" fill="#0969da" opacity="0.79" rx="2"/>
<rect x="168" y="408" width="22" height="22" fill="#0969da" opacity="0.90" rx="2"/>
<rect x="192" y="408" width="22" height="22" fill="#0969da" opacity="1.00" rx="2"/>
<rect x="216" y="408" width="22" height="22" fill="#0969da" opacity="0.79" rx="2"/>
<rect x="240" y="408" width="22" height="22" fill="#0969da" opacity="1.00" rx="2"/>
<rect x="264" y="408" width="22" height="22" fill="#0969da" opacity="0.90" rx="2"/>
<rect x="288" y="408" width="22" height="22" fill="#0969da" opacity="0.79" rx="2"/>
<rect x="312" y="408" width="22" height="22" fill="#0969da" opacity="0.90" rx="2"/>
<rect x="336" y="408" width="22" height="22" fill="#0969da" opacity="0.79" rx="2"/>
<rect x="360" y="408" width="22" height="22" fill="#0969da" opacity="1.00" rx="2"/>
<rect x="384" y="408" width="22" height="22" fill="#0969da" opacity="0.90" rx="2"/>
<rect x="408" y="408" width="22" height="22" fill="#0969da" opacity="0.90" rx="2"/>
<text x="86" y="448" font-family="SFMono-Regular,Consolas,Menlo,monospace" font-size="12" fill="#6a737d" text-anchor="end">i</text>
<rect x="96" y="432" width="22" height="22" fill="#0969da" opacity="0.90" rx="2"/>
<rect x="120" y="432" width="22" height="22" fill="#0969da" opacity="1.00" rx="2"/>
<rect x="144" y="432" width="22" height="22" fill="#0969da" opacity="0.79" rx="2"/>
<rect x="168" y="432" width="22" height="22" fill="#0969da" opacity="0.90" rx="2"/>
<rect x="192" y="432" width="22" height="22" fill="#0969da" opacity="1.00" rx="2"/>
<rect x="216" y="432" width="22" height="22" fill="#0969da" opacity="0.79" rx="2"/>
<rect x="240" y="432" width="22" height="22" fill="#0969da" opacity="1.00" rx="2"/>
<rect x="264" y="432" width="22" height="22" fill="#0969da" opacity="0.90" rx="2"/>
<rect x="288" y="432" width="22" height="22" fill="#0969da" opacity="0.69" rx="2"/>
<rect x="312" y="432" width="22" height="22" fill="#0969da" opacity="0.79" rx="2"/>
<rect x="336" y="432" width="22" height="22" fill="#0969da" opacity="0.79" rx="2"/>
<rect x="360" y="432" width="22" height="22" fill="#0969da" opacity="1.00" rx="2"/>
<rect x="384" y="432" width="22" height="22" fill="#0969da" opacity="0.90" rx="2"/>
<rect x="408" y="432" width="22" height="22" fill="#0969da" opacity="0.90" rx="2"/>
<rect x="432" y="432" width="22" height="22" fill="#0969da" opacity="0.90" rx="2"/>
<text x="86" y="472" font-family="SFMono-Regular,Consolas,Menlo,monospace" font-size="12" fill="#6a737d" text-anchor="end">n</text>
<rect x="96" y="456" width="22" height="22" fill="#0969da" opacity="1.00" rx="2"/>
<rect x="120" y="456" width="22" height="22" fill="#0969da" opacity="0.69" rx="2"/>
<rect x="144" y="456" width="22" height="22" fill="#0969da" opacity="0.79" rx="2"/>
<rect x="168" y="456" width="22" height="22" fill="#0969da" opacity="0.69" rx="2"/>
<rect x="192" y="456" width="22" height="22" fill="#0969da" opacity="0.69" rx="2"/>
<rect x="216" y="456" width="22" height="22" fill="#0969da" opacity="0.90" rx="2"/>
<rect x="240" y="456" width="22" height="22" fill="#0969da" opacity="0.69" rx="2"/>
<rect x="264" y="456" width="22" height="22" fill="#0969da" opacity="1.00" rx="2"/>
<rect x="288" y="456" width="22" height="22" fill="#0969da" opacity="0.69" rx="2"/>
<rect x="312" y="456" width="22" height="22" fill="#0969da" opacity="0.79" rx="2"/>
<rect x="336" y="456" width="22" height="22" fill="#0969da" opacity="0.90" rx="2"/>
<rect x="360" y="456" width="22" height="22" fill="#0969da" opacity="0.69" rx="2"/>
<rect x="384" y="456" width="22" height="22" fill="#0969da" opacity="0.79" rx="2"/>
<rect x="408" y="456" width="22" height="22" fill="#0969da" opacity="0.90" rx="2"/>
<rect x="432" y="456" width="22" height="22" fill="#0969da" opacity="1.00" rx="2"/>
<rect x="456" y="456" width="22" height="22" fill="#0969da" opacity="0.90" rx="2"/>
<text x="86" y="496" font-family="SFMono-Regular,Consolas,Menlo,monospace" font-size="12" fill="#6a737d" text-anchor="end">i</text>
<rect x="96" y="480" width="22" height="22" fill="#0969da" opacity="0.90" rx="2"/>
<rect x="120" y="480" width="22" height="22" fill="#0969da" opacity="1.00" rx="2"/>
<rect x="144" y="480" width="22" height="22" fill="#0969da" opacity="0.79" rx="2"/>
<rect x="168" y="480" width="22" height="22" fill="#0969da" opacity="0.90" rx="2"/>
<rect x="192" y="480" width="22" height="22" fill="#0969da" opacity="1.00" rx="2"/>
<rect x="216" y="480" width="22" height="22" fill="#0969da" opacity="0.79" rx="2"/>
<rect x="240" y="480" width="22" height="22" fill="#0969da" opacity="1.00" rx="2"/>
<rect x="264" y="480" width="22" height="22" fill="#0969da" opacity="0.90" rx="2"/>
<rect x="288" y="480" width="22" height="22" fill="#0969da" opacity="0.69" rx="2"/>
<rect x="312" y="480" width="22" height="22" fill="#0969da" opacity="0.79" rx="2"/>
<rect x="336" y="480" width="22" height="22" fill="#0969da" opacity="0.79" rx="2"/>
<rect x="360" y="480" width="22" height="22" fill="#0969da" opacity="1.00" rx="2"/>
<rect x="384" y="480" width="22" height="22" fill="#0969da" opacity="0.90" rx="2"/>
<rect x="408" y="480" width="22" height="22" fill="#0969da" opacity="0.90" rx="2"/>
<rect x="432" y="480" width="22" height="22" fill="#0969da" opacity="0.79" rx="2"/>
<rect x="456" y="480" width="22" height="22" fill="#0969da" opacity="0.90" rx="2"/>
<rect x="480" y="480" width="22" height="22" fill="#0969da" opacity="0.90" rx="2"/>
<text x="86" y="520" font-family="SFMono-Regular,Consolas,Menlo,monospace" font-size="12" fill="#6a737d" text-anchor="end">n</text>
<rect x="96" y="504" width="22" height="22" fill="#0969da" opacity="1.00" rx="2"/>
<rect x="120" y="504" width="22" height="22" fill="#0969da" opacity="0.69" rx="2"/>
<rect x="144" y="504" width="22" height="22" fill="#0969da" opacity="0.79" rx="2"/>
<rect x="168" y="504" width="22" height="22" fill="#0969da" opacity="0.69" rx="2"/>
<rect x="192" y="504" width="22" height="22" fill="#0969da" opacity="0.69" rx="2"/>
<rect x="216" y="504" width="22" height="22" fill="#0969da" opacity="0.90" rx="2"/>
<rect x="240" y="504" width="22" height="22" fill="#0969da" opacity="0.69" rx="2"/>
<rect x="264" y="504" width="22" height="22" fill="#0969da" opacity="1.00" rx="2"/>
<rect x="288" y="504" width="22" height="22" fill="#0969da" opacity="0.79" rx="2"/>
<rect x="312" y="504" width="22" height="22" fill="#0969da" opacity="0.79" rx="2"/>
<rect x="336" y="504" width="22" height="22" fill="#0969da" opacity="0.90" rx="2"/>
<rect x="360" y="504" width="22" height="22" fill="#0969da" opacity="0.69" rx="2"/>
<rect x="384" y="504" width="22" height="22" fill="#0969da" opacity="0.79" rx="2"/>
<rect x="408" y="504" width="22" height="22" fill="#0969da" opacity="0.90" rx="2"/>
<rect x="432" y="504" width="22" height="22" fill="#0969da" opacity="1.00" rx="2"/>
<rect x="456" y="504" width="22" height="22" fill="#0969da" opacity="0.90" rx="2"/>
<rect x="480" y="504" width="22" height="22" fill="#0969da" opacity="1.00" rx="2"/>
<rect x="504" y="504" width="22" height="22" fill="#0969da" opacity="0.90" rx="2"/>
<text x="86" y="544" font-family="SFMono-Regular,Consolas,Menlo,monospace" font-size="12" fill="#6a737d" text-anchor="end">g</text>
<rect x="96" y="528" width="22" height="22" fill="#0969da" opacity="1.00" rx="2"/>
<rect x="120" y="528" width="22" height="22" fill="#0969da" opacity="1.00" rx="2"/>
<rect x="144" y="528" width="22" height="22" fill="#0969da" opacity="0.90" rx="2"/>
<rect x="168" y="528" width="22" height="22" fill="#0969da" opacity="0.90" rx="2"/>
<rect x="192" y="528" width="22" height="22" fill="#0969da" opacity="0.90" rx="2"/>
<rect x="216" y="528" width="22" height="22" fill="#0969da" opacity="1.00" rx="2"/>
<rect x="240" y="528" width="22" height="22" fill="#0969da" opacity="0.90" rx="2"/>
<rect x="264" y="528" width="22" height="22" fill="#0969da" opacity="1.00" rx="2"/>
<rect x="288" y="528" width="22" height="22" fill="#0969da" opacity="1.00" rx="2"/>
<rect x="312" y="528" width="22" height="22" fill="#0969da" opacity="0.90" rx="2"/>
<rect x="336" y="528" width="22" height="22" fill="#0969da" opacity="1.00" rx="2"/>
<rect x="360" y="528" width="22" height="22" fill="#0969da" opacity="0.90" rx="2"/>
<rect x="384" y="528" width="22" height="22" fill="#0969da" opacity="1.00" rx="2"/>
<rect x="408" y="528" width="22" height="22" fill="#0969da" opacity="1.00" rx="2"/>
<rect x="432" y="528" width="22" height="22" fill="#0969da" opacity="1.00" rx="2"/>
<rect x="456" y="528" width="22" height="22" fill="#0969da" opacity="0.90" rx="2"/>
<rect x="480" y="528" width="22" height="22" fill="#0969da" opacity="1.00" rx="2"/>
<rect x="504" y="528" width="22" height="22" fill="#0969da" opacity="1.00" rx="2"/>
<rect x="528" y="528" width="22" height="22" fill="#0969da" opacity="0.90" rx="2"/>
</svg>