<svg xmlns="http://www.w3.org/2000/svg" width="860" height="320" viewBox="0 0 860 320">
<rect width="860" height="320" fill="#ffffff"/>
<text x="64" y="32" font-family="SFMono-Regular,Consolas,Menlo,monospace" font-size="15" fill="#1f2328" text-anchor="start" font-weight="bold">same model, same data, same steps — only the optimizer differs</text>
<text x="64" y="52" font-family="SFMono-Regular,Consolas,Menlo,monospace" font-size="12" fill="#6a737d" text-anchor="start">training loss, smoothed · SGD from train4, Adam from train5 · out/train*_losses.txt</text>
<line x1="64" y1="260.8" x2="796" y2="260.8" stroke="#d8dee4" stroke-width="1"/>
<text x="56" y="264.81628877264575" font-family="SFMono-Regular,Consolas,Menlo,monospace" font-size="11" fill="#6a737d" text-anchor="end">2.6</text>
<line x1="64" y1="203.6" x2="796" y2="203.6" stroke="#d8dee4" stroke-width="1"/>
<text x="56" y="207.62531787878567" font-family="SFMono-Regular,Consolas,Menlo,monospace" font-size="11" fill="#6a737d" text-anchor="end">2.9</text>
<line x1="64" y1="146.4" x2="796" y2="146.4" stroke="#d8dee4" stroke-width="1"/>
<text x="56" y="150.43434698492553" font-family="SFMono-Regular,Consolas,Menlo,monospace" font-size="11" fill="#6a737d" text-anchor="end">3.2</text>
<line x1="64" y1="89.2" x2="796" y2="89.2" stroke="#d8dee4" stroke-width="1"/>
<text x="56" y="93.24337609106547" font-family="SFMono-Regular,Consolas,Menlo,monospace" font-size="11" fill="#6a737d" text-anchor="end">3.5</text>
<polyline points="64.0,75.9 64.7,75.0 65.5,74.7 66.2,73.9 66.9,74.0 67.7,73.3 68.4,72.2 69.1,71.2 69.9,71.1 70.6,70.0 71.3,71.4 72.1,73.2 72.8,73.7 73.5,72.5 74.3,72.7 75.0,72.6 75.7,75.6 76.5,76.0 77.2,75.8 77.9,76.2 78.7,76.3 79.4,78.5 80.1,80.2 80.9,81.0 81.6,81.4 82.3,82.8 83.1,84.6 83.8,84.6 84.5,86.3 85.2,88.8 86.0,90.1 86.7,91.9 87.4,95.1 88.2,95.7 88.9,96.1 89.6,98.3 90.4,99.1 91.1,101.1 91.8,104.0 92.6,106.1 93.3,106.1 94.0,108.1 94.8,110.5 95.5,113.0 96.2,116.3 97.0,116.9 97.7,119.3 98.4,115.3 99.2,117.0 99.9,119.0 100.6,119.1 101.4,121.1 102.1,123.4 102.8,125.7 103.6,124.7 104.3,127.4 105.0,127.7 105.8,129.1 106.5,130.5 107.2,131.4 108.0,135.3 108.7,135.0 109.4,136.5 110.2,139.0 110.9,141.4 111.6,145.2 112.4,150.3 113.1,151.1 113.8,151.4 114.6,153.6 115.3,154.8 116.0,153.9 116.8,156.6 117.5,155.6 118.2,156.8 119.0,158.9 119.7,160.6 120.4,159.0 121.2,159.6 121.9,161.3 122.6,164.8 123.4,162.6 124.1,161.2 124.8,160.3 125.5,163.1 126.3,164.0 127.0,165.1 127.7,168.0 128.5,166.8 129.2,167.1 129.9,165.0 130.7,167.3 131.4,168.2 132.1,168.8 132.9,171.1 133.6,172.2 134.3,173.6 135.1,172.8 135.8,174.1 136.5,174.2 137.3,177.5 138.0,181.3 138.7,183.1 139.5,185.2 140.2,186.7 140.9,187.5 141.7,190.2 142.4,194.1 143.1,198.9 143.9,199.9 144.6,199.8 145.3,201.1 146.1,203.8 146.8,203.7 147.5,204.1 148.3,204.9 149.0,200.3 149.7,201.9 150.5,202.8 151.2,204.1 151.9,205.5 152.7,206.2 153.4,208.7 154.1,210.8 154.9,214.1 155.6,213.9 156.3,215.7 157.1,217.3 157.8,216.1 158.5,218.9 159.3,213.9 160.0,212.8 160.7,213.5 161.5,215.3 162.2,215.1 162.9,214.2 163.7,210.4 164.4,207.7 165.1,207.4 165.8,208.9 166.6,203.5 167.3,203.5 168.0,198.7 168.8,197.4 169.5,194.4 170.2,189.9 171.0,193.5 171.7,193.3 172.4,192.7 173.2,190.3 173.9,188.9 174.6,189.8 175.4,191.7 176.1,190.8 176.8,191.2 177.6,189.5 178.3,193.2 179.0,195.8 179.8,193.5 180.5,195.7 181.2,198.2 182.0,199.3 182.7,200.8 183.4,202.0 184.2,199.5 184.9,202.1 185.6,206.7 186.4,204.6 187.1,207.9 187.8,207.4 188.6,207.9 189.3,207.8 190.0,207.1 190.8,205.6 191.5,206.2 192.2,208.3 193.0,205.0 193.7,204.8 194.4,200.8 195.2,200.4 195.9,203.3 196.6,203.8 197.4,198.1 198.1,197.5 198.8,197.4 199.6,197.2 200.3,200.5 201.0,199.8 201.8,203.2 202.5,203.0 203.2,204.1 204.0,207.5 204.7,207.7 205.4,208.2 206.2,206.7 206.9,207.3 207.6,209.3 208.3,208.1 209.1,210.0 209.8,208.6 210.5,207.7 211.3,208.2 212.0,209.9 212.7,209.8 213.5,214.2 214.2,215.7 214.9,217.0 215.7,213.8 216.4,216.8 217.1,217.9 217.9,217.3 218.6,215.8 219.3,217.4 220.1,217.5 220.8,218.9 221.5,220.5 222.3,218.6 223.0,217.9 223.7,208.8 224.5,210.1 225.2,208.3 225.9,209.9 226.7,212.8 227.4,213.7 228.1,216.1 228.9,213.2 229.6,212.6 230.3,213.4 231.1,215.1 231.8,218.5 232.5,216.0 233.3,217.4 234.0,214.0 234.7,213.6 235.5,214.7 236.2,211.9 236.9,211.3 237.7,210.4 238.4,209.6 239.1,210.5 239.9,212.6 240.6,210.8 241.3,212.6 242.1,214.9 242.8,218.9 243.5,210.6 244.3,211.8 245.0,211.5 245.7,210.0 246.5,209.8 247.2,210.7 247.9,208.9 248.6,209.8 249.4,208.0 250.1,198.7 250.8,201.7 251.6,198.8 252.3,196.3 253.0,192.9 253.8,194.5 254.5,195.5 255.2,195.6 256.0,193.4 256.7,192.2 257.4,195.6 258.2,198.1 258.9,201.5 259.6,203.1 260.4,203.6 261.1,200.1 261.8,197.6 262.6,192.5 263.3,192.8 264.0,191.7 264.8,192.1 265.5,193.4 266.2,195.2 267.0,196.9 267.7,197.7 268.4,200.6 269.2,202.1 269.9,201.2 270.6,200.2 271.4,201.5 272.1,203.3 272.8,200.5 273.6,204.2 274.3,204.0 275.0,204.9 275.8,206.3 276.5,206.7 277.2,207.9 278.0,209.7 278.7,206.9 279.4,209.2 280.2,211.6 280.9,211.2 281.6,211.4 282.4,206.0 283.1,204.0 283.8,203.6 284.6,202.6 285.3,202.6 286.0,203.8 286.8,204.9 287.5,206.3 288.2,206.3 288.9,198.7 289.7,197.1 290.4,195.4 291.1,196.1 291.9,199.9 292.6,192.1 293.3,194.3 294.1,195.0 294.8,196.0 295.5,198.8 296.3,200.8 297.0,193.2 297.7,197.8 298.5,199.2 299.2,201.5 299.9,206.0 300.7,207.1 301.4,207.0 302.1,206.2 302.9,208.9 303.6,211.9 304.3,210.1 305.1,213.3 305.8,209.9 306.5,206.7 307.3,210.2 308.0,202.8 308.7,204.3 309.5,203.6 310.2,205.6 310.9,206.8 311.7,208.9 312.4,209.9 313.1,210.7 313.9,210.0 314.6,211.4 315.3,214.5 316.1,214.9 316.8,214.7 317.5,212.9 318.3,214.8 319.0,215.3 319.7,215.9 320.5,214.8 321.2,214.5 321.9,213.6 322.7,212.1 323.4,213.2 324.1,213.6 324.9,215.0 325.6,216.9 326.3,217.9 327.1,211.2 327.8,214.5 328.5,214.4 329.2,214.5 330.0,214.3 330.7,210.2 331.4,210.7 332.2,213.5 332.9,217.7 333.6,219.1 334.4,220.1 335.1,214.3 335.8,210.7 336.6,210.7 337.3,211.4 338.0,213.6 338.8,215.4 339.5,218.4 340.2,216.9 341.0,216.1 341.7,217.4 342.4,218.2 343.2,217.4 343.9,218.1 344.6,219.2 345.4,211.6 346.1,212.7 346.8,208.8 347.6,211.3 348.3,211.1 349.0,204.2 349.8,201.9 350.5,203.3 351.2,204.9 352.0,207.5 352.7,209.2 353.4,209.0 354.2,211.2 354.9,212.1 355.6,213.5 356.4,216.1 357.1,215.2 357.8,216.6 358.6,217.7 359.3,214.7 360.0,217.7 360.8,215.6 361.5,215.5 362.2,215.2 363.0,218.5 363.7,215.5 364.4,220.4 365.2,218.6 365.9,217.5 366.6,217.2 367.4,218.4 368.1,217.5 368.8,217.2 369.5,216.8 370.3,217.9 371.0,218.4 371.7,221.3 372.5,222.3 373.2,223.1 373.9,221.2 374.7,223.4 375.4,225.8 376.1,224.7 376.9,225.2 377.6,222.6 378.3,225.2 379.1,223.0 379.8,221.6 380.5,218.8 381.3,218.7 382.0,222.8 382.7,220.4 383.5,222.1 384.2,217.7 384.9,218.9 385.7,220.7 386.4,221.6 387.1,222.6 387.9,224.4 388.6,219.2 389.3,220.7 390.1,222.1 390.8,222.7 391.5,215.4 392.3,213.9 393.0,212.8 393.7,213.2 394.5,212.5 395.2,215.8 395.9,217.0 396.7,216.5 397.4,213.8 398.1,214.2 398.9,214.5 399.6,215.2 400.3,214.3 401.1,216.4 401.8,218.1 402.5,219.1 403.3,217.7 404.0,221.8 404.7,217.1 405.5,214.1 406.2,217.1 406.9,220.9 407.7,224.5 408.4,224.8 409.1,228.2 409.8,228.4 410.6,226.8 411.3,228.5 412.0,231.3 412.8,230.7 413.5,228.7 414.2,227.2 415.0,226.0 415.7,226.6 416.4,228.8 417.2,228.1 417.9,230.7 418.6,230.1 419.4,232.3 420.1,231.1 420.8,230.8 421.6,231.4 422.3,230.4 423.0,232.3 423.8,235.3 424.5,236.1 425.2,233.7 426.0,228.2 426.7,227.4 427.4,226.8 428.2,228.1 428.9,228.4 429.6,225.3 430.4,225.9 431.1,224.1 431.8,226.8 432.6,225.9 433.3,223.5 434.0,219.5 434.8,213.4 435.5,214.8 436.2,214.4 437.0,212.9 437.7,213.5 438.4,215.0 439.2,215.6 439.9,213.3 440.6,214.5 441.4,211.2 442.1,211.7 442.8,213.8 443.6,215.2 444.3,220.0 445.0,218.3 445.8,220.0 446.5,221.3 447.2,223.7 448.0,225.1 448.7,229.9 449.4,229.8 450.2,228.3 450.9,231.3 451.6,228.7 452.3,225.6 453.1,228.7 453.8,226.7 454.5,225.9 455.3,228.9 456.0,230.1 456.7,226.9 457.5,227.9 458.2,230.0 458.9,232.5 459.7,223.2 460.4,223.8 461.1,222.5 461.9,225.4 462.6,226.5 463.3,226.3 464.1,230.3 464.8,229.2 465.5,229.4 466.3,227.1 467.0,229.5 467.7,230.4 468.5,230.1 469.2,232.0 469.9,234.9 470.7,235.9 471.4,235.0 472.1,235.7 472.9,235.6 473.6,239.1 474.3,243.0 475.1,243.8 475.8,244.8 476.5,245.6 477.3,244.6 478.0,247.2 478.7,250.7 479.5,255.0 480.2,254.7 480.9,254.4 481.7,255.2 482.4,257.5 483.1,256.6 483.9,255.8 484.6,258.1 485.3,252.9 486.1,254.6 486.8,254.9 487.5,255.7 488.3,255.9 489.0,255.4 489.7,255.9 490.5,258.7 491.2,261.2 491.9,261.2 492.6,263.1 493.4,263.8 494.1,261.2 494.8,263.9 495.6,257.0 496.3,254.6 497.0,255.2 497.8,257.7 498.5,256.2 499.2,254.9 500.0,253.1 500.7,250.0 501.4,250.3 502.2,251.6 502.9,245.9 503.6,245.1 504.4,240.7 505.1,237.5 505.8,233.5 506.6,229.2 507.3,232.7 508.0,232.2 508.8,230.5 509.5,228.5 510.2,227.4 511.0,227.1 511.7,227.2 512.4,226.4 513.2,227.0 513.9,222.7 514.6,226.5 515.4,230.1 516.1,227.5 516.8,229.6 517.6,231.7 518.3,232.5 519.0,234.2 519.8,235.0 520.5,231.8 521.2,234.8 522.0,238.3 522.7,235.9 523.4,240.0 524.2,239.5 524.9,238.5 525.6,238.8 526.4,238.1 527.1,236.4 527.8,236.9 528.6,239.4 529.3,237.8 530.0,236.1 530.8,230.5 531.5,230.4 532.2,233.6 532.9,234.4 533.7,228.8 534.4,227.4 535.1,226.8 535.9,227.5 536.6,231.6 537.3,232.1 538.1,233.8 538.8,233.2 539.5,235.7 540.3,239.3 541.0,240.5 541.7,240.9 542.5,240.2 543.2,240.4 543.9,241.3 544.7,241.6 545.4,242.4 546.1,240.3 546.9,239.0 547.6,239.0 548.3,240.3 549.1,238.7 549.8,243.7 550.5,243.4 551.3,244.3 552.0,240.2 552.7,243.9 553.5,245.6 554.2,245.9 554.9,244.6 555.7,245.9 556.4,245.4 557.1,245.9 557.9,247.8 558.6,247.3 559.3,245.9 560.1,234.2 560.8,236.5 561.5,236.9 562.3,239.0 563.0,242.2 563.7,242.7 564.5,244.5 565.2,241.1 565.9,241.1 566.7,241.9 567.4,242.9 568.1,245.5 568.9,242.8 569.6,244.7 570.3,241.0 571.1,240.5 571.8,241.4 572.5,241.7 573.2,239.9 574.0,238.6 574.7,237.9 575.4,238.6 576.2,240.5 576.9,238.1 577.6,240.2 578.4,242.4 579.1,245.7 579.8,236.4 580.6,236.6 581.3,236.0 582.0,234.3 582.8,235.2 583.5,235.7 584.2,234.2 585.0,234.8 585.7,233.7 586.4,228.5 587.2,230.7 587.9,228.5 588.6,225.7 589.4,222.4 590.1,225.2 590.8,225.8 591.6,225.4 592.3,224.8 593.0,222.8 593.8,226.2 594.5,228.2 595.2,231.6 596.0,233.0 596.7,233.4 597.4,229.9 598.2,227.6 598.9,223.6 599.6,224.1 600.4,221.7 601.1,221.7 601.8,222.2 602.6,224.3 603.3,225.6 604.0,225.6 604.8,228.0 605.5,229.0 606.2,229.0 607.0,227.5 607.7,228.6 608.4,229.8 609.2,227.4 609.9,231.4 610.6,230.9 611.4,231.8 612.1,234.4 612.8,234.1 613.5,236.2 614.3,236.7 615.0,233.5 615.7,235.6 616.5,238.0 617.2,238.3 617.9,238.6 618.7,234.8 619.4,232.7 620.1,232.2 620.9,232.0 621.6,230.4 622.3,230.5 623.1,231.9 623.8,233.3 624.5,233.8 625.3,225.0 626.0,223.2 626.7,220.4 627.5,221.0 628.2,225.7 628.9,218.1 629.7,220.5 630.4,219.7 631.1,220.8 631.9,222.8 632.6,224.3 633.3,216.5 634.1,221.1 634.8,222.5 635.5,224.0 636.3,228.5 637.0,230.0 637.7,229.5 638.5,228.8 639.2,232.0 639.9,234.4 640.7,232.0 641.4,235.8 642.1,232.9 642.9,229.5 643.6,232.4 644.3,224.3 645.1,225.9 645.8,224.8 646.5,227.0 647.3,228.2 648.0,229.1 648.7,230.1 649.5,230.3 650.2,230.3 650.9,232.5 651.7,235.9 652.4,235.4 653.1,235.2 653.8,234.0 654.6,235.4 655.3,235.3 656.0,237.3 656.8,235.3 657.5,235.0 658.2,235.0 659.0,233.6 659.7,234.6 660.4,234.9 661.2,235.5 661.9,236.9 662.6,237.7 663.4,233.4 664.1,236.9 664.8,236.4 665.6,235.8 666.3,235.5 667.0,230.6 667.8,231.2 668.5,232.9 669.2,237.6 670.0,238.2 670.7,239.1 671.4,232.6 672.2,229.0 672.9,229.7 673.6,230.3 674.4,232.7 675.1,234.0 675.8,237.1 676.6,235.6 677.3,234.9 678.0,236.2 678.8,237.0 679.5,235.5 680.2,236.2 681.0,237.6 681.7,232.5 682.4,233.9 683.2,228.6 683.9,230.6 684.6,230.8 685.4,223.3 686.1,219.7 686.8,221.1 687.6,223.0 688.3,226.2 689.0,227.3 689.8,227.1 690.5,228.6 691.2,228.9 692.0,230.5 692.7,232.9 693.4,231.9 694.2,234.3 694.9,235.4 695.6,233.0 696.3,236.5 697.1,234.0 697.8,234.1 698.5,235.0 699.3,237.5 700.0,235.5 700.7,239.5 701.5,237.2 702.2,236.0 702.9,235.9 703.7,237.2 704.4,235.8 705.1,235.3 705.9,234.4 706.6,235.5 707.3,235.8 708.1,238.4 708.8,239.1 709.5,239.6 710.3,237.8 711.0,240.2 711.7,242.2 712.5,241.4 713.2,242.6 713.9,239.8 714.7,241.6 715.4,240.3 716.1,239.8 716.9,237.7 717.6,237.3 718.3,241.1 719.1,238.8 719.8,240.6 720.5,236.1 721.3,237.8 722.0,240.0 722.7,240.9 723.5,242.1 724.2,243.1 724.9,237.7 725.7,239.0 726.4,240.3 727.1,240.5 727.9,232.2 728.6,230.7 729.3,229.2 730.1,229.6 730.8,227.8 731.5,230.9 732.3,232.6 733.0,232.7 733.7,230.4 734.5,231.0 735.2,231.2 735.9,232.5 736.6,232.2 737.4,234.2 738.1,235.5 738.8,236.5 739.6,234.5 740.3,238.3 741.0,234.5 741.8,230.7 742.5,233.4 743.2,237.1 744.0,240.8 744.7,240.8 745.4,243.9 746.2,244.7 746.9,243.5 747.6,245.0 748.4,247.5 749.1,248.2 749.8,246.5 750.6,244.2 751.3,242.3 752.0,243.4 752.8,244.8 753.5,244.7 754.2,246.9 755.0,246.1 755.7,248.6 756.4,247.6 757.2,246.7 757.9,246.6 758.6,245.6 759.4,247.5 760.1,249.9 760.8,251.0 761.6,249.6 762.3,244.4 763.0,243.6 763.8,242.9 764.5,243.9 765.2,243.9 766.0,240.4 766.7,241.0 767.4,240.0 768.2,243.2 768.9,240.8 769.6,239.3 770.4,235.9 771.1,230.8 771.8,231.8 772.6,230.9 773.3,229.7 774.0,229.8 774.8,231.3 775.5,231.5 776.2,229.3 776.9,231.1 777.7,227.7 778.4,228.2 779.1,230.4 779.9,231.9 780.6,236.0 781.3,234.1 782.1,235.8 782.8,236.7 783.5,240.1 784.3,241.5 785.0,246.2 785.7,246.1 786.5,244.6 787.2,247.6 787.9,245.2 788.7,243.1 789.4,246.0 790.1,244.1 790.9,243.2 791.6,246.2 792.3,247.6 793.1,243.9 793.8,244.6 794.5,245.4 795.3,247.0 796.0,239.6" fill="none" stroke="#6a737d" stroke-width="2.2"/>
<line x1="600" y1="76" x2="622" y2="76" stroke="#6a737d" stroke-width="3"/>
<text x="628" y="80" font-family="SFMono-Regular,Consolas,Menlo,monospace" font-size="12" fill="#6a737d" text-anchor="start" font-weight="bold">SGD (train4)</text>
<polyline points="64.0,75.9 64.7,75.1 65.5,75.0 66.2,73.7 66.9,74.6 67.7,74.3 68.4,73.2 69.1,74.6 69.9,76.6 70.6,76.8 71.3,79.9 72.1,84.0 72.8,86.1 73.5,86.5 74.3,86.5 75.0,90.2 75.7,94.0 76.5,95.6 77.2,96.2 77.9,98.9 78.7,101.4 79.4,106.0 80.1,111.0 80.9,114.1 81.6,116.6 82.3,119.7 83.1,124.0 83.8,122.6 84.5,126.3 85.2,130.6 86.0,132.3 86.7,135.7 87.4,140.5 88.2,140.3 88.9,140.1 89.6,139.7 90.4,139.6 91.1,140.4 91.8,143.5 92.6,145.6 93.3,145.6 94.0,148.7 94.8,148.7 95.5,151.1 96.2,153.1 97.0,152.7 97.7,153.2 98.4,148.5 99.2,151.0 99.9,153.5 100.6,152.7 101.4,155.1 102.1,157.2 102.8,158.3 103.6,158.2 104.3,160.1 105.0,159.3 105.8,160.3 106.5,161.2 107.2,162.4 108.0,167.3 108.7,165.8 109.4,168.1 110.2,169.9 110.9,171.3 111.6,174.0 112.4,178.8 113.1,178.7 113.8,178.8 114.6,182.1 115.3,182.0 116.0,177.5 116.8,180.1 117.5,179.4 118.2,180.5 119.0,183.0 119.7,184.2 120.4,182.7 121.2,183.0 121.9,185.4 122.6,189.7 123.4,182.6 124.1,180.7 124.8,179.0 125.5,182.1 126.3,183.4 127.0,184.0 127.7,187.5 128.5,186.6 129.2,188.2 129.9,186.4 130.7,188.7 131.4,189.9 132.1,189.6 132.9,192.6 133.6,194.0 134.3,195.0 135.1,194.2 135.8,195.5 136.5,195.0 137.3,198.7 138.0,203.0 138.7,203.6 139.5,203.9 140.2,204.6 140.9,204.7 141.7,207.7 142.4,211.7 143.1,216.7 143.9,217.4 144.6,217.9 145.3,218.2 146.1,221.2 146.8,222.4 147.5,222.2 148.3,224.6 149.0,214.4 149.7,217.5 150.5,218.6 151.2,219.3 151.9,220.8 152.7,221.5 153.4,223.9 154.1,227.3 154.9,228.4 155.6,229.1 156.3,231.5 157.1,233.7 157.8,232.1 158.5,235.6 159.3,227.5 160.0,226.0 160.7,226.7 161.5,229.1 162.2,227.9 162.9,225.1 163.7,219.6 164.4,217.2 165.1,217.6 165.8,218.5 166.6,212.1 167.3,211.3 168.0,207.2 168.8,206.4 169.5,202.7 170.2,199.6 171.0,203.1 171.7,203.1 172.4,201.7 173.2,200.1 173.9,199.1 174.6,198.7 175.4,199.9 176.1,201.7 176.8,201.5 177.6,201.3 178.3,204.0 179.0,206.5 179.8,202.3 180.5,204.3 181.2,205.2 182.0,205.6 182.7,207.5 183.4,208.7 184.2,205.7 184.9,209.5 185.6,213.1 186.4,212.5 187.1,216.7 187.8,216.3 188.6,216.4 189.3,216.0 190.0,214.2 190.8,213.1 191.5,215.5 192.2,217.8 193.0,213.0 193.7,211.1 194.4,206.2 195.2,205.8 195.9,209.0 196.6,209.8 197.4,205.8 198.1,206.1 198.8,205.7 199.6,205.4 200.3,210.0 201.0,210.9 201.8,213.9 202.5,213.3 203.2,215.1 204.0,219.4 204.7,219.9 205.4,220.0 206.2,218.5 206.9,220.4 207.6,222.5 208.3,221.4 209.1,223.6 209.8,221.4 210.5,220.0 211.3,218.9 212.0,220.9 212.7,220.4 213.5,225.7 214.2,225.4 214.9,226.9 215.7,222.2 216.4,226.0 217.1,227.3 217.9,228.2 218.6,227.1 219.3,229.1 220.1,227.6 220.8,228.3 221.5,229.9 222.3,228.9 223.0,227.0 223.7,215.1 224.5,217.1 225.2,216.6 225.9,218.4 226.7,220.3 227.4,221.3 228.1,223.1 228.9,219.4 229.6,220.5 230.3,221.0 231.1,222.5 231.8,225.2 232.5,223.0 233.3,224.4 234.0,221.2 234.7,221.9 235.5,222.8 236.2,220.0 236.9,217.9 237.7,217.2 238.4,214.6 239.1,216.2 239.9,218.3 240.6,217.0 241.3,220.2 242.1,223.0 242.8,227.9 243.5,220.0 244.3,219.6 245.0,220.6 245.7,218.9 246.5,218.3 247.2,219.8 247.9,217.5 248.6,218.6 249.4,215.9 250.1,202.6 250.8,206.8 251.6,204.4 252.3,201.2 253.0,197.2 253.8,200.7 254.5,202.0 255.2,202.3 256.0,201.1 256.7,200.3 257.4,204.2 258.2,207.4 258.9,209.7 259.6,211.5 260.4,214.4 261.1,211.3 261.8,210.4 262.6,207.4 263.3,207.5 264.0,207.0 264.8,207.1 265.5,208.5 266.2,209.8 267.0,212.5 267.7,212.0 268.4,215.0 269.2,215.5 269.9,213.5 270.6,213.1 271.4,214.6 272.1,215.1 272.8,213.0 273.6,215.9 274.3,214.9 275.0,214.3 275.8,215.9 276.5,216.6 277.2,218.0 278.0,218.1 278.7,213.9 279.4,216.2 280.2,219.2 280.9,219.5 281.6,220.3 282.4,215.3 283.1,213.5 283.8,213.7 284.6,213.2 285.3,211.3 286.0,211.9 286.8,213.5 287.5,214.5 288.2,215.7 288.9,209.3 289.7,208.4 290.4,206.5 291.1,207.1 291.9,210.6 292.6,201.4 293.3,203.9 294.1,202.2 294.8,203.5 295.5,206.4 296.3,207.7 297.0,198.7 297.7,202.4 298.5,204.0 299.2,205.5 299.9,209.5 300.7,211.0 301.4,211.1 302.1,210.3 302.9,213.4 303.6,216.6 304.3,214.2 305.1,216.2 305.8,213.4 306.5,212.2 307.3,216.4 308.0,206.2 308.7,206.6 309.5,205.3 310.2,208.2 310.9,209.0 311.7,211.1 312.4,212.5 313.1,213.7 313.9,215.3 314.6,218.2 315.3,221.1 316.1,221.4 316.8,220.4 317.5,220.5 318.3,222.9 319.0,223.7 319.7,223.8 320.5,222.9 321.2,222.4 321.9,222.4 322.7,221.9 323.4,223.1 324.1,223.2 324.9,224.1 325.6,226.1 326.3,226.4 327.1,222.3 327.8,226.2 328.5,226.7 329.2,226.1 330.0,226.2 330.7,220.3 331.4,219.5 332.2,222.2 332.9,226.5 333.6,227.2 334.4,227.8 335.1,220.9 335.8,217.8 336.6,219.8 337.3,220.2 338.0,222.4 338.8,223.2 339.5,226.9 340.2,225.4 341.0,224.7 341.7,227.8 342.4,228.0 343.2,227.7 343.9,228.3 344.6,229.8 345.4,217.6 346.1,219.4 346.8,214.5 347.6,217.4 348.3,217.0 349.0,209.3 349.8,206.2 350.5,208.7 351.2,210.4 352.0,213.6 352.7,215.0 353.4,215.9 354.2,218.3 354.9,219.5 355.6,220.2 356.4,223.3 357.1,222.6 357.8,224.4 358.6,226.1 359.3,223.4 360.0,226.5 360.8,225.5 361.5,225.2 362.2,222.8 363.0,226.4 363.7,220.5 364.4,224.6 365.2,223.6 365.9,223.2 366.6,224.2 367.4,225.7 368.1,225.0 368.8,225.9 369.5,224.6 370.3,226.3 371.0,227.5 371.7,229.5 372.5,230.3 373.2,231.4 373.9,228.2 374.7,230.8 375.4,233.0 376.1,233.0 376.9,233.8 377.6,231.0 378.3,233.3 379.1,230.6 379.8,228.7 380.5,226.1 381.3,225.6 382.0,230.4 382.7,228.4 383.5,231.4 384.2,225.6 384.9,226.6 385.7,228.4 386.4,228.6 387.1,229.9 387.9,230.9 388.6,225.6 389.3,226.9 390.1,227.8 390.8,229.1 391.5,221.2 392.3,219.9 393.0,218.7 393.7,218.7 394.5,219.5 395.2,222.5 395.9,223.3 396.7,222.6 397.4,218.9 398.1,220.4 398.9,220.5 399.6,221.4 400.3,222.3 401.1,224.7 401.8,225.9 402.5,226.1 403.3,223.7 404.0,226.6 404.7,223.3 405.5,220.9 406.2,224.3 406.9,228.5 407.7,231.4 408.4,231.4 409.1,234.6 409.8,236.7 410.6,234.7 411.3,237.0 412.0,239.7 412.8,239.5 413.5,237.1 414.2,236.3 415.0,235.3 415.7,235.9 416.4,238.1 417.2,238.6 417.9,240.5 418.6,240.4 419.4,242.1 420.1,240.4 420.8,240.8 421.6,241.4 422.3,240.0 423.0,242.5 423.8,244.8 424.5,245.9 425.2,244.9 426.0,237.9 426.7,237.6 427.4,236.3 428.2,237.9 428.9,238.6 429.6,235.8 430.4,236.4 431.1,235.0 431.8,237.6 432.6,237.3 433.3,236.5 434.0,231.9 434.8,225.8 435.5,227.2 436.2,226.3 437.0,223.3 437.7,223.8 438.4,225.1 439.2,225.9 439.9,223.6 440.6,225.2 441.4,222.7 442.1,223.1 442.8,225.3 443.6,226.3 444.3,230.5 445.0,230.3 445.8,232.6 446.5,233.6 447.2,235.2 448.0,236.5 448.7,241.8 449.4,241.7 450.2,238.7 450.9,242.3 451.6,237.5 452.3,232.8 453.1,235.7 453.8,233.6 454.5,233.2 455.3,237.5 456.0,239.0 456.7,237.4 457.5,238.4 458.2,240.7 458.9,243.5 459.7,230.1 460.4,231.6 461.1,230.8 461.9,233.0 462.6,233.4 463.3,233.2 464.1,237.2 464.8,236.7 465.5,236.5 466.3,234.7 467.0,237.5 467.7,238.2 468.5,238.9 469.2,241.3 469.9,244.8 470.7,245.6 471.4,245.7 472.1,246.2 472.9,247.5 473.6,250.8 474.3,254.6 475.1,254.4 475.8,256.0 476.5,256.6 477.3,256.5 478.0,258.6 478.7,262.1 479.5,266.3 480.2,264.0 480.9,265.3 481.7,266.1 482.4,268.3 483.1,267.9 483.9,266.9 484.6,269.6 485.3,266.4 486.1,268.6 486.8,267.8 487.5,269.5 488.3,269.7 489.0,270.2 489.7,271.0 490.5,273.8 491.2,276.8 491.9,277.9 492.6,279.4 493.4,280.0 494.1,276.3 494.8,279.1 495.6,271.4 496.3,269.0 497.0,268.3 497.8,271.5 498.5,269.1 499.2,266.4 500.0,265.7 500.7,263.3 501.4,263.3 502.2,264.8 502.9,256.3 503.6,255.7 504.4,248.1 505.1,245.0 505.8,239.7 506.6,235.4 507.3,240.0 508.0,239.5 508.8,237.3 509.5,236.1 510.2,234.4 511.0,232.4 511.7,230.7 512.4,231.6 513.2,232.3 513.9,230.0 514.6,234.2 515.4,238.6 516.1,236.1 516.8,238.1 517.6,239.7 518.3,240.8 519.0,243.5 519.8,244.8 520.5,241.2 521.2,244.2 522.0,247.7 522.7,245.5 523.4,249.7 524.2,248.8 524.9,247.1 525.6,247.7 526.4,246.5 527.1,244.9 527.8,246.1 528.6,248.8 529.3,248.6 530.0,247.2 530.8,241.4 531.5,242.6 532.2,245.4 532.9,247.5 533.7,241.5 534.4,240.4 535.1,239.6 535.9,241.3 536.6,246.3 537.3,248.0 538.1,248.7 538.8,248.5 539.5,251.1 540.3,255.5 541.0,257.0 541.7,256.7 542.5,256.9 543.2,258.1 543.9,259.4 544.7,259.6 545.4,260.3 546.1,256.8 546.9,254.7 547.6,253.2 548.3,254.4 549.1,252.9 549.8,258.2 550.5,257.6 551.3,257.7 552.0,252.6 552.7,256.8 553.5,259.3 554.2,261.1 554.9,260.4 555.7,261.4 556.4,259.9 557.1,260.1 557.9,261.4 558.6,263.7 559.3,263.1 560.1,246.9 560.8,249.0 561.5,249.7 562.3,252.1 563.0,254.8 563.7,255.9 564.5,258.2 565.2,254.0 565.9,256.1 566.7,257.3 567.4,258.2 568.1,260.4 568.9,257.0 569.6,258.6 570.3,256.0 571.1,255.6 571.8,255.4 572.5,256.3 573.2,253.5 574.0,252.6 574.7,250.0 575.4,250.6 576.2,252.2 576.9,250.2 577.6,253.6 578.4,256.4 579.1,260.0 579.8,252.0 580.6,251.7 581.3,251.7 582.0,250.1 582.8,251.0 583.5,252.2 584.2,250.8 585.0,250.6 585.7,249.3 586.4,239.8 587.2,242.9 587.9,239.6 588.6,238.0 589.4,233.7 590.1,238.5 590.8,241.1 591.6,240.4 592.3,239.1 593.0,237.0 593.8,241.7 594.5,243.3 595.2,245.5 596.0,247.1 596.7,248.1 597.4,244.5 598.2,242.9 598.9,240.5 599.6,240.3 600.4,239.0 601.1,239.2 601.8,238.7 602.6,241.1 603.3,242.9 604.0,242.4 604.8,245.4 605.5,245.7 606.2,244.7 607.0,244.8 607.7,245.9 608.4,245.3 609.2,243.1 609.9,246.4 610.6,245.8 611.4,246.1 612.1,249.0 612.8,249.0 613.5,250.7 614.3,250.2 615.0,247.8 615.7,249.5 616.5,251.6 617.2,251.8 617.9,252.9 618.7,250.0 619.4,247.6 620.1,248.4 620.9,248.0 621.6,244.4 622.3,243.5 623.1,245.4 623.8,245.8 624.5,246.5 625.3,237.7 626.0,235.7 626.7,233.0 627.5,233.7 628.2,238.7 628.9,229.6 629.7,232.5 630.4,231.0 631.1,232.8 631.9,234.8 632.6,235.7 633.3,227.9 634.1,232.8 634.8,234.5 635.5,235.8 636.3,240.6 637.0,242.4 637.7,241.4 638.5,241.4 639.2,245.4 639.9,248.4 640.7,244.3 641.4,247.9 642.1,245.9 642.9,244.1 643.6,248.3 644.3,242.6 645.1,243.2 645.8,242.0 646.5,244.1 647.3,244.6 648.0,245.0 648.7,246.7 649.5,247.3 650.2,247.9 650.9,251.2 651.7,254.1 652.4,253.7 653.1,253.5 653.8,254.0 654.6,254.9 655.3,254.3 656.0,256.6 656.8,255.5 657.5,254.7 658.2,255.8 659.0,254.2 659.7,255.1 660.4,255.1 661.2,254.6 661.9,256.0 662.6,255.9 663.4,252.5 664.1,256.2 664.8,255.8 665.6,254.5 666.3,253.6 667.0,246.4 667.8,246.3 668.5,247.1 669.2,251.1 670.0,251.5 670.7,251.7 671.4,245.0 672.2,241.0 672.9,243.5 673.6,244.3 674.4,247.2 675.1,247.5 675.8,251.3 676.6,249.8 677.3,249.7 678.0,252.1 678.8,251.4 679.5,251.6 680.2,251.2 681.0,253.1 681.7,246.3 682.4,248.4 683.2,243.1 683.9,245.3 684.6,245.9 685.4,238.9 686.1,234.8 686.8,236.7 687.6,238.3 688.3,241.8 689.0,243.1 689.8,244.4 690.5,246.5 691.2,246.4 692.0,248.7 692.7,251.5 693.4,251.0 694.2,253.8 694.9,255.7 695.6,254.2 696.3,257.6 697.1,257.3 697.8,256.0 698.5,255.6 699.3,258.4 700.0,255.3 700.7,258.4 701.5,256.2 702.2,255.8 702.9,256.8 703.7,258.0 704.4,256.6 705.1,255.0 705.9,253.6 706.6,255.5 707.3,255.7 708.1,257.1 708.8,257.8 709.5,258.4 710.3,256.0 711.0,258.6 711.7,260.1 712.5,260.1 713.2,261.3 713.9,258.4 714.7,260.7 715.4,259.3 716.1,256.0 716.9,253.0 717.6,252.2 718.3,256.7 719.1,254.6 719.8,257.7 720.5,252.5 721.3,254.2 722.0,256.7 722.7,256.8 723.5,258.1 724.2,258.9 724.9,255.5 725.7,256.2 726.4,257.3 727.1,258.4 727.9,246.0 728.6,245.4 729.3,243.8 730.1,243.7 730.8,243.6 731.5,245.8 732.3,247.6 733.0,247.6 733.7,247.1 734.5,248.2 735.2,248.4 735.9,249.5 736.6,249.4 737.4,251.3 738.1,252.5 738.8,252.4 739.6,249.5 740.3,252.6 741.0,249.3 741.8,247.1 742.5,250.2 743.2,254.0 744.0,257.1 744.7,257.2 745.4,259.5 746.2,261.6 746.9,260.6 747.6,262.4 748.4,265.8 749.1,267.3 749.8,264.7 750.6,262.6 751.3,260.5 752.0,261.9 752.8,262.9 753.5,264.0 754.2,266.5 755.0,265.8 755.7,268.3 756.4,266.6 757.2,266.6 757.9,266.6 758.6,265.5 759.4,267.8 760.1,268.6 760.8,270.1 761.6,269.6 762.3,263.9 763.0,263.7 763.8,262.3 764.5,263.5 765.2,264.0 766.0,260.1 766.7,260.0 767.4,260.0 768.2,264.1 768.9,263.4 769.6,262.5 770.4,259.2 771.1,254.9 771.8,255.2 772.6,253.4 773.3,249.9 774.0,250.6 774.8,251.7 775.5,251.6 776.2,249.2 776.9,251.9 777.7,248.8 778.4,249.5 779.1,252.4 779.9,254.0 780.6,257.5 781.3,255.9 782.1,256.5 782.8,257.5 783.5,260.8 784.3,262.1 785.0,267.9 785.7,268.4 786.5,265.6 787.2,269.6 787.9,266.1 788.7,262.8 789.4,265.7 790.1,263.4 790.9,262.8 791.6,266.0 792.3,267.5 793.1,264.5 793.8,265.6 794.5,265.9 795.3,267.6 796.0,258.5" fill="none" stroke="#cf222e" stroke-width="2.2"/>
<line x1="730" y1="76" x2="752" y2="76" stroke="#cf222e" stroke-width="3"/>
<text x="758" y="80" font-family="SFMono-Regular,Consolas,Menlo,monospace" font-size="12" fill="#cf222e" text-anchor="start" font-weight="bold">Adam (train5)</text>
<text x="804" y="243.58589489824885" font-family="SFMono-Regular,Consolas,Menlo,monospace" font-size="11.5" fill="#6a737d" text-anchor="start" font-weight="bold">2.71</text>
<text x="804" y="262.5112011233722" font-family="SFMono-Regular,Consolas,Menlo,monospace" font-size="11.5" fill="#cf222e" text-anchor="start" font-weight="bold">2.61</text>
<text x="64" y="308" font-family="SFMono-Regular,Consolas,Menlo,monospace" font-size="11" fill="#6a737d" text-anchor="start">step 1</text>
<text x="796" y="308" font-family="SFMono-Regular,Consolas,Menlo,monospace" font-size="11" fill="#6a737d" text-anchor="end">step 1000</text>
</svg>