<svg xmlns="http://www.w3.org/2000/svg" width="860" height="320" viewBox="0 0 860 320">
<rect width="860" height="320" fill="#ffffff"/>
<text x="64" y="32" font-family="SFMono-Regular,Consolas,Menlo,monospace" font-size="15" fill="#1f2328" text-anchor="start" font-weight="bold">same model, same data, same steps — only the optimizer differs</text>
<text x="64" y="52" font-family="SFMono-Regular,Consolas,Menlo,monospace" font-size="12" fill="#6a737d" text-anchor="start">training loss, smoothed · SGD from train4, Adam from train5 · out/train*_losses.txt</text>
<line x1="64" y1="260.9" x2="836" y2="260.9" stroke="#d8dee4" stroke-width="1"/>
<text x="56" y="264.91545759349435" font-family="SFMono-Regular,Consolas,Menlo,monospace" font-size="11" fill="#6a737d" text-anchor="end">2.6</text>
<line x1="64" y1="203.4" x2="836" y2="203.4" stroke="#d8dee4" stroke-width="1"/>
<text x="56" y="207.41583837516436" font-family="SFMono-Regular,Consolas,Menlo,monospace" font-size="11" fill="#6a737d" text-anchor="end">2.9</text>
<line x1="64" y1="145.9" x2="836" y2="145.9" stroke="#d8dee4" stroke-width="1"/>
<text x="56" y="149.91621915683425" font-family="SFMono-Regular,Consolas,Menlo,monospace" font-size="11" fill="#6a737d" text-anchor="end">3.2</text>
<line x1="64" y1="88.4" x2="836" y2="88.4" stroke="#d8dee4" stroke-width="1"/>
<text x="56" y="92.41659993850423" font-family="SFMono-Regular,Consolas,Menlo,monospace" font-size="11" fill="#6a737d" text-anchor="end">3.5</text>
<polyline points="64.0,75.0 64.8,74.1 65.5,74.5 66.3,74.3 67.1,73.7 67.9,74.1 68.6,73.4 69.4,72.2 70.2,71.4 71.0,71.2 71.7,70.0 72.5,71.6 73.3,73.6 74.0,73.8 74.8,72.6 75.6,72.9 76.4,72.7 77.1,75.7 77.9,76.0 78.7,76.1 79.5,76.6 80.2,76.6 81.0,79.1 81.8,81.0 82.5,81.7 83.3,81.9 84.1,83.6 84.9,85.7 85.6,86.0 86.4,87.9 87.2,90.6 88.0,92.0 88.7,93.9 89.5,97.4 90.3,97.9 91.0,98.3 91.8,100.5 92.6,101.3 93.4,103.2 94.1,106.1 94.9,109.0 95.7,111.0 96.5,110.8 97.2,112.6 98.0,115.4 98.8,118.0 99.5,120.9 100.3,121.4 101.1,123.3 101.9,119.1 102.6,120.5 103.4,122.3 104.2,124.2 105.0,124.3 105.7,126.2 106.5,128.3 107.3,130.4 108.0,129.3 108.8,132.0 109.6,134.6 110.4,135.0 111.1,136.5 111.9,137.6 112.7,138.5 113.5,142.5 114.2,142.3 115.0,143.8 115.8,146.3 116.5,148.3 117.3,151.9 118.1,157.3 118.9,158.2 119.6,158.5 120.4,160.7 121.2,161.5 122.0,160.3 122.7,163.0 123.5,161.7 124.3,162.8 125.0,164.8 125.8,166.4 126.6,164.9 127.4,166.1 128.1,166.1 128.9,166.6 129.7,167.4 130.5,170.9 131.2,168.2 132.0,167.0 132.8,166.1 133.5,169.1 134.3,170.0 135.1,171.1 135.9,174.0 136.6,172.5 137.4,172.7 138.2,170.8 139.0,172.9 139.7,173.8 140.5,173.9 141.3,176.4 142.1,177.5 142.8,178.7 143.6,177.6 144.4,178.9 145.1,179.1 145.9,182.4 146.7,186.3 147.5,188.0 148.2,189.8 149.0,191.2 149.8,191.9 150.6,194.6 151.3,198.2 152.1,203.3 152.9,204.0 153.6,203.9 154.4,205.2 155.2,207.9 156.0,207.7 156.7,207.9 157.5,208.9 158.3,204.1 159.1,205.5 159.8,206.4 160.6,207.5 161.4,208.6 162.1,209.1 162.9,211.7 163.7,213.9 164.5,216.8 165.2,216.6 166.0,218.5 166.8,220.2 167.6,218.9 168.3,221.7 169.1,216.4 169.9,215.1 170.6,215.7 171.4,217.6 172.2,217.3 173.0,218.7 173.7,217.7 174.5,214.0 175.3,211.2 176.1,210.8 176.8,212.2 177.6,206.7 178.4,206.0 179.1,200.9 179.9,199.1 180.7,196.0 181.5,191.5 182.2,195.0 183.0,194.8 183.8,194.1 184.6,197.3 185.3,195.1 186.1,193.5 186.9,194.0 187.6,195.6 188.4,195.1 189.2,193.9 190.0,194.4 190.7,192.4 191.5,196.0 192.3,198.8 193.1,196.3 193.8,198.7 194.6,200.9 195.4,201.9 196.1,203.5 196.9,204.5 197.7,202.0 198.5,203.1 199.2,205.2 200.0,209.7 200.8,207.5 201.6,210.9 202.3,210.2 203.1,210.7 203.9,210.6 204.6,210.0 205.4,208.5 206.2,208.9 207.0,210.9 207.7,214.9 208.5,211.4 209.3,210.7 210.1,206.3 210.8,205.7 211.6,208.4 212.4,208.7 213.1,203.3 213.9,202.4 214.7,201.8 215.5,201.4 216.2,204.7 217.0,204.0 217.8,207.3 218.6,207.0 219.3,208.2 220.1,211.5 220.9,211.4 221.6,212.0 222.4,210.4 223.2,210.9 224.0,212.6 224.7,211.5 225.5,213.2 226.3,211.9 227.1,210.8 227.8,211.0 228.6,212.7 229.4,213.5 230.1,213.2 230.9,217.5 231.7,218.8 232.5,220.1 233.2,216.9 234.0,219.8 234.8,221.1 235.6,220.2 236.3,218.8 237.1,220.2 237.9,219.8 238.6,220.9 239.4,222.5 240.2,220.6 241.0,219.5 241.7,210.1 242.5,211.4 243.3,209.8 244.1,211.4 244.8,214.4 245.6,215.2 246.4,217.6 247.1,214.8 247.9,214.2 248.7,215.1 249.5,216.6 250.2,220.0 251.0,217.4 251.8,218.7 252.6,215.2 253.3,214.9 254.1,216.0 254.9,217.4 255.6,214.3 256.4,213.8 257.2,212.7 258.0,211.3 258.7,212.0 259.5,214.0 260.3,212.0 261.1,216.4 261.8,218.2 262.6,220.3 263.4,224.3 264.1,215.3 264.9,216.2 265.7,215.9 266.5,214.0 267.2,213.7 268.0,214.5 268.8,212.7 269.6,213.5 270.3,211.5 271.1,201.4 271.9,204.4 272.6,201.4 273.4,198.6 274.2,194.9 275.0,196.5 275.7,197.2 276.5,197.3 277.3,195.3 278.1,193.9 278.8,197.4 279.6,199.7 280.4,203.4 281.1,205.0 281.9,205.5 282.7,201.9 283.5,199.4 284.2,194.0 285.0,194.3 285.8,193.3 286.6,193.8 287.3,195.0 288.1,196.9 288.9,196.0 289.6,197.6 290.4,198.2 291.2,201.1 292.0,202.7 292.7,202.5 293.5,201.4 294.3,200.7 295.1,202.0 295.8,203.6 296.6,201.3 297.4,205.3 298.2,205.3 298.9,206.2 299.7,207.3 300.5,207.6 301.2,209.0 302.0,210.6 302.8,207.6 303.6,209.8 304.3,212.3 305.1,211.9 305.9,212.2 306.7,215.0 307.4,209.1 308.2,207.0 309.0,207.1 309.7,205.8 310.5,205.3 311.3,206.5 312.1,207.4 312.8,208.5 313.6,208.6 314.4,200.6 315.2,198.8 315.9,197.2 316.7,198.0 317.5,201.5 318.2,193.4 319.0,195.7 319.8,196.3 320.6,197.3 321.3,200.1 322.1,200.0 322.9,202.2 323.7,194.6 324.4,199.1 325.2,200.4 326.0,202.4 326.7,207.0 327.5,207.9 328.3,207.5 329.1,206.8 329.8,209.3 330.6,212.4 331.4,210.8 332.2,214.1 332.9,210.8 333.7,207.5 334.5,210.7 335.2,202.8 336.0,204.6 336.8,204.0 337.6,206.1 338.3,207.2 339.1,209.3 339.9,210.3 340.7,211.3 341.4,210.8 342.2,212.2 343.0,215.3 343.7,215.6 344.5,215.2 345.3,213.1 346.1,215.3 346.8,215.9 347.6,216.6 348.4,215.6 349.2,215.1 349.9,214.7 350.7,214.5 351.5,213.0 352.2,214.5 353.0,215.4 353.8,214.7 354.6,215.9 355.3,211.5 356.1,211.6 356.9,213.9 357.7,215.0 358.4,208.7 359.2,212.3 360.0,212.4 360.7,212.4 361.5,212.4 362.3,208.4 363.1,208.8 363.8,211.5 364.6,216.2 365.4,217.8 366.2,219.1 366.9,213.4 367.7,210.1 368.5,210.4 369.2,211.4 370.0,213.6 370.8,215.4 371.6,217.7 372.3,220.5 373.1,218.7 373.9,217.7 374.7,218.9 375.4,219.7 376.2,218.5 377.0,219.2 377.7,220.3 378.5,213.1 379.3,214.2 380.1,210.7 380.8,213.0 381.6,213.0 382.4,205.9 383.2,203.5 383.9,204.9 384.7,206.4 385.5,209.1 386.2,211.1 387.0,213.2 387.8,212.8 388.6,215.0 389.3,216.0 390.1,217.1 390.9,219.5 391.7,218.4 392.4,217.0 393.2,215.2 394.0,217.3 394.7,218.5 395.5,215.1 396.3,218.3 397.1,216.0 397.8,216.0 398.6,216.0 399.4,219.4 400.2,216.4 400.9,221.3 401.7,220.2 402.5,219.1 403.2,218.9 404.0,219.9 404.8,219.1 405.6,218.8 406.3,218.3 407.1,219.4 407.9,219.9 408.7,222.7 409.4,223.8 410.2,224.6 411.0,222.4 411.7,224.4 412.5,226.5 413.3,226.6 414.1,225.5 414.8,226.0 415.6,223.1 416.4,225.8 417.2,223.7 417.9,222.6 418.7,219.8 419.5,219.9 420.2,223.9 421.0,221.5 421.8,223.1 422.6,218.3 423.3,219.5 424.1,221.1 424.9,222.1 425.7,223.1 426.4,224.8 427.2,219.9 428.0,220.0 428.7,221.5 429.5,222.8 430.3,223.4 431.1,215.8 431.8,214.4 432.6,216.6 433.4,215.5 434.2,215.6 434.9,214.6 435.7,217.9 436.5,219.1 437.2,218.7 438.0,215.8 438.8,216.1 439.6,216.3 440.3,217.0 441.1,216.0 441.9,217.8 442.7,218.4 443.4,220.0 444.2,220.4 445.0,219.5 445.7,223.7 446.5,218.2 447.3,215.3 448.1,218.1 448.8,221.7 449.6,225.7 450.4,226.1 451.2,229.2 451.9,229.6 452.7,228.3 453.5,230.1 454.3,232.4 455.0,232.0 455.8,230.0 456.6,228.4 457.3,227.2 458.1,227.8 458.9,230.2 459.7,229.6 460.4,231.9 461.2,231.7 462.0,234.0 462.8,232.9 463.5,232.6 464.3,233.3 465.1,232.3 465.8,234.2 466.6,237.3 467.4,237.9 468.2,235.6 468.9,230.0 469.7,229.2 470.5,228.9 471.3,230.4 472.0,231.5 472.8,231.5 473.6,228.0 474.3,228.5 475.1,226.7 475.9,229.2 476.7,227.9 477.4,225.9 478.2,221.2 479.0,215.1 479.8,216.5 480.5,215.8 481.3,218.3 482.1,216.1 482.8,216.7 483.6,218.1 484.4,218.3 485.2,215.6 485.9,216.9 486.7,219.9 487.5,216.2 488.3,216.5 489.0,218.3 489.8,219.4 490.6,224.1 491.3,222.4 492.1,224.1 492.9,225.4 493.7,227.5 494.4,228.4 495.2,233.2 496.0,233.0 496.8,231.6 497.5,234.7 498.3,232.1 499.1,228.8 499.8,231.9 500.6,229.5 501.4,228.7 502.2,231.8 502.9,232.9 503.7,229.9 504.5,230.1 505.3,230.5 506.0,231.2 506.8,232.7 507.6,235.0 508.3,225.5 509.1,226.1 509.9,225.1 510.7,228.0 511.4,229.2 512.2,229.0 513.0,232.9 513.8,231.5 514.5,231.7 515.3,229.5 516.1,232.2 516.8,232.9 517.6,232.3 518.4,234.5 519.2,237.5 519.9,238.3 520.7,237.2 521.5,238.1 522.3,238.2 523.0,241.6 523.8,245.5 524.6,246.2 525.3,247.1 526.1,248.0 526.9,246.9 527.7,249.4 528.4,252.7 529.2,257.1 530.0,256.6 530.8,256.4 531.5,257.3 532.3,259.6 533.1,258.9 533.8,258.1 534.6,260.4 535.4,255.2 536.2,257.1 536.9,257.2 537.7,258.0 538.5,257.9 539.3,257.3 540.0,258.0 540.8,260.7 541.6,263.1 542.3,263.1 543.1,265.1 543.9,265.8 544.7,263.3 545.4,265.9 546.2,259.0 547.0,256.5 547.8,257.0 548.5,259.5 549.3,258.1 550.1,258.6 550.8,257.1 551.6,255.3 552.4,252.2 553.2,252.3 553.9,253.4 554.7,247.7 555.5,246.6 556.3,242.0 557.0,238.4 557.8,234.5 558.6,230.2 559.3,233.6 560.1,233.2 560.9,231.4 561.7,232.8 562.4,230.9 563.2,229.7 564.0,229.2 564.8,229.1 565.5,228.9 566.3,227.9 567.1,228.6 567.8,223.9 568.6,227.8 569.4,231.7 570.2,229.1 570.9,231.3 571.7,233.3 572.5,234.2 573.3,235.9 574.0,236.6 574.8,233.2 575.6,233.0 576.3,235.5 577.1,239.0 577.9,236.6 578.7,240.7 579.4,240.3 580.2,239.4 581.0,239.7 581.8,239.5 582.5,237.7 583.3,238.2 584.1,240.6 584.8,244.1 585.6,242.3 586.4,240.4 587.2,234.7 587.9,234.6 588.7,237.5 589.5,238.2 590.3,233.4 591.0,231.7 591.8,230.7 592.6,231.4 593.3,235.4 594.1,235.9 594.9,237.4 595.7,236.7 596.4,239.3 597.2,242.9 598.0,243.8 598.8,244.2 599.5,243.4 600.3,243.5 601.1,244.3 601.8,244.5 602.6,245.0 603.4,242.9 604.2,241.3 604.9,241.3 605.7,242.5 606.5,243.6 607.3,241.7 608.0,246.7 608.8,246.3 609.6,247.2 610.4,243.2 611.1,246.8 611.9,248.4 612.7,248.2 613.4,246.9 614.2,248.1 615.0,247.2 615.8,247.3 616.5,249.2 617.3,248.5 618.1,246.9 618.9,235.0 619.6,237.4 620.4,237.6 621.2,239.8 621.9,243.0 622.7,243.4 623.5,245.3 624.3,242.0 625.0,241.9 625.8,242.8 626.6,243.7 627.4,246.3 628.1,243.6 628.9,245.5 629.7,241.6 630.4,241.1 631.2,242.0 632.0,242.6 632.8,242.8 633.5,241.0 634.3,239.6 635.1,238.6 635.9,239.4 636.6,241.1 637.4,238.5 638.2,242.7 638.9,244.6 639.7,246.6 640.5,249.9 641.3,240.1 642.0,240.1 642.8,239.5 643.6,237.6 644.4,238.4 645.1,238.8 645.9,237.1 646.7,237.6 647.4,236.3 648.2,230.6 649.0,232.8 649.8,230.6 650.5,227.3 651.3,223.7 652.1,226.5 652.9,226.9 653.6,226.6 654.4,226.3 655.2,224.1 655.9,227.3 656.7,229.2 657.5,233.0 658.3,234.3 659.0,234.9 659.8,231.3 660.6,228.9 661.4,224.8 662.1,225.2 662.9,223.0 663.7,222.9 664.4,223.1 665.2,225.3 666.0,224.3 666.8,225.5 667.5,225.6 668.3,227.9 669.1,229.2 669.9,228.4 670.6,228.3 671.4,227.0 672.2,228.2 672.9,229.4 673.7,227.3 674.5,231.7 675.3,231.3 676.0,232.3 676.8,234.8 677.6,234.5 678.4,236.6 679.1,237.0 679.9,233.6 680.7,235.7 681.4,238.3 682.2,238.5 683.0,238.7 683.8,240.6 684.5,236.1 685.3,234.0 686.1,233.8 686.9,233.5 687.6,231.8 688.4,231.7 689.2,233.1 689.9,234.2 690.7,234.9 691.5,226.0 692.3,224.2 693.0,221.4 693.8,222.1 694.6,226.7 695.4,218.6 696.1,221.0 696.9,220.2 697.7,221.3 698.4,223.3 699.2,222.8 700.0,224.3 700.8,216.4 701.5,221.2 702.3,222.4 703.1,223.8 703.9,228.3 704.6,229.7 705.4,229.0 706.2,228.5 706.9,231.6 707.7,233.9 708.5,231.8 709.3,235.7 710.0,233.1 710.8,229.4 711.6,231.9 712.4,223.6 713.1,225.4 713.9,224.3 714.7,226.9 715.4,227.9 716.2,228.9 717.0,229.9 717.8,230.1 718.5,230.3 719.3,232.4 720.1,235.7 720.9,235.2 721.6,234.9 722.4,233.5 723.2,235.0 723.9,235.2 724.7,237.4 725.5,235.4 726.3,235.0 727.0,235.6 727.8,235.7 728.6,234.2 729.4,235.5 730.1,236.0 730.9,235.1 731.7,235.6 732.4,231.6 733.2,232.1 734.0,233.9 734.8,234.7 735.5,230.5 736.3,234.3 737.1,233.8 737.9,232.9 738.6,232.8 739.4,228.3 740.2,228.7 740.9,230.5 741.7,235.6 742.5,236.3 743.3,237.4 744.0,231.2 744.8,227.8 745.6,229.2 746.4,230.0 747.1,232.4 747.9,233.8 748.7,235.2 749.4,238.2 750.2,236.5 751.0,235.9 751.8,236.9 752.5,238.0 753.3,236.4 754.1,237.1 754.9,238.7 755.6,233.6 756.4,235.2 757.2,230.1 757.9,231.9 758.7,232.0 759.5,224.4 760.3,220.7 761.0,222.2 761.8,224.0 762.6,227.4 763.4,228.8 764.1,231.2 764.9,230.6 765.7,232.0 766.5,232.4 767.2,233.7 768.0,235.9 768.8,234.8 769.5,234.0 770.3,232.3 771.1,235.0 771.9,236.2 772.6,233.7 773.4,237.1 774.2,234.3 775.0,234.5 775.7,235.9 776.5,238.5 777.3,236.7 778.0,240.4 778.8,238.8 779.6,237.4 780.4,237.6 781.1,238.7 781.9,237.4 782.7,236.8 783.5,235.9 784.2,236.8 785.0,237.2 785.8,239.8 786.5,240.4 787.3,241.0 788.1,239.0 788.9,241.3 789.6,243.0 790.4,242.8 791.2,242.0 792.0,243.2 792.7,240.2 793.5,242.1 794.3,240.9 795.0,240.7 795.8,238.8 796.6,238.6 797.4,242.1 798.1,239.8 798.9,241.5 799.7,236.7 800.5,238.3 801.2,240.4 802.0,241.2 802.8,242.4 803.5,243.2 804.3,238.0 805.1,238.1 805.9,239.4 806.6,240.7 807.4,240.9 808.2,233.1 809.0,231.5 809.7,233.7 810.5,232.0 811.3,232.4 812.0,230.2 812.8,233.1 813.6,234.7 814.4,234.7 815.1,232.5 815.9,232.9 816.7,232.9 817.5,234.4 818.2,234.0 819.0,235.9 819.8,237.4 820.5,238.4 821.3,239.4 822.1,237.4 822.9,241.3 823.6,237.0 824.4,233.3 825.2,235.8 826.0,239.5 826.7,243.4 827.5,243.4 828.3,246.3 829.0,247.2 829.8,246.2 830.6,247.8 831.4,249.8 832.1,250.3 832.9,248.5 833.7,246.2 834.5,244.3 835.2,245.0 836.0,246.7" fill="none" stroke="#6a737d" stroke-width="2.2"/>
<line x1="600" y1="76" x2="622" y2="76" stroke="#6a737d" stroke-width="3"/>
<text x="628" y="80" font-family="SFMono-Regular,Consolas,Menlo,monospace" font-size="12" fill="#6a737d" text-anchor="start" font-weight="bold">SGD (train4)</text>
<polyline points="64.0,75.0 64.8,74.2 65.5,75.3 66.3,75.4 67.1,74.0 67.9,75.8 68.6,75.5 69.4,74.0 70.2,76.5 71.0,78.4 71.7,78.6 72.5,81.9 73.3,86.9 74.0,88.2 74.8,88.3 75.6,88.0 76.4,91.4 77.1,95.2 77.9,97.0 78.7,97.8 79.5,100.4 80.2,102.6 81.0,107.4 81.8,112.4 82.5,115.4 83.3,117.8 84.1,120.9 84.9,125.4 85.6,124.7 86.4,128.4 87.2,132.5 88.0,134.2 88.7,137.4 89.5,142.4 90.3,142.0 91.0,141.8 91.8,140.2 92.6,140.7 93.4,141.7 94.1,144.0 94.9,146.9 95.7,148.9 96.5,148.7 97.2,151.7 98.0,152.3 98.8,154.7 99.5,156.5 100.3,156.5 101.1,156.1 101.9,150.5 102.6,152.9 103.4,155.2 104.2,157.4 105.0,156.2 105.7,158.3 106.5,159.8 107.3,161.0 108.0,160.3 108.8,162.2 109.6,165.4 110.4,163.7 111.1,165.0 111.9,165.9 112.7,166.9 113.5,171.7 114.2,170.3 115.0,173.0 115.8,174.7 116.5,175.7 117.3,178.2 118.1,183.7 118.9,183.4 119.6,183.5 120.4,187.1 121.2,186.7 122.0,181.9 122.7,184.6 123.5,183.5 124.3,184.2 125.0,186.6 125.8,187.2 126.6,185.8 127.4,187.2 128.1,184.9 128.9,185.3 129.7,187.1 130.5,191.0 131.2,184.0 132.0,183.2 132.8,181.9 133.5,185.1 134.3,186.4 135.1,187.2 135.9,190.6 136.6,189.8 137.4,191.8 138.2,189.8 139.0,192.5 139.7,193.0 140.5,192.0 141.3,195.1 142.1,196.6 142.8,197.4 143.6,196.6 144.4,198.0 145.1,197.9 145.9,201.4 146.7,205.6 147.5,206.2 148.2,206.7 149.0,206.9 149.8,207.8 150.6,210.7 151.3,213.8 152.1,219.5 152.9,220.0 153.6,220.3 154.4,221.0 155.2,224.2 156.0,225.3 156.7,224.7 157.5,226.6 158.3,216.5 159.1,219.5 159.8,219.9 160.6,220.6 161.4,221.6 162.1,221.7 162.9,223.9 163.7,227.2 164.5,228.8 165.2,228.6 166.0,231.5 166.8,232.9 167.6,231.4 168.3,235.0 169.1,227.0 169.9,225.9 170.6,226.3 171.4,228.7 172.2,227.4 173.0,228.4 173.7,225.8 174.5,222.2 175.3,220.0 176.1,220.5 176.8,221.4 177.6,215.5 178.4,214.3 179.1,210.3 179.9,208.6 180.7,205.1 181.5,201.4 182.2,204.3 183.0,204.3 183.8,202.8 184.6,206.3 185.3,204.6 186.1,203.9 186.9,203.4 187.6,204.2 188.4,203.5 189.2,205.1 190.0,204.8 190.7,204.0 191.5,206.5 192.3,209.7 193.1,205.7 193.8,208.2 194.6,209.1 195.4,209.2 196.1,211.0 196.9,211.6 197.7,208.6 198.5,207.5 199.2,210.9 200.0,214.9 200.8,214.1 201.6,218.6 202.3,218.8 203.1,219.3 203.9,218.5 204.6,216.7 205.4,215.1 206.2,217.3 207.0,219.5 207.7,223.9 208.5,219.2 209.3,217.2 210.1,212.3 210.8,211.2 211.6,214.0 212.4,215.3 213.1,211.5 213.9,210.9 214.7,210.1 215.5,209.1 216.2,213.9 217.0,214.5 217.8,217.5 218.6,217.6 219.3,218.8 220.1,222.6 220.9,222.8 221.6,222.8 222.4,221.3 223.2,222.8 224.0,225.2 224.7,224.2 225.5,226.2 226.3,224.6 227.1,222.7 227.8,221.6 228.6,223.2 229.4,224.6 230.1,223.7 230.9,228.8 231.7,228.3 232.5,229.8 233.2,225.8 234.0,229.6 234.8,231.6 235.6,232.0 236.3,231.4 237.1,233.2 237.9,230.7 238.6,230.8 239.4,232.1 240.2,231.4 241.0,229.2 241.7,216.1 242.5,218.4 243.3,217.4 244.1,219.3 244.8,220.7 245.6,221.4 246.4,223.1 247.1,219.3 247.9,220.6 248.7,221.2 249.5,222.7 250.2,225.2 251.0,223.0 251.8,224.7 252.6,221.5 253.3,222.2 254.1,222.7 254.9,224.0 255.6,222.0 256.4,219.8 257.2,218.9 258.0,215.5 258.7,216.5 259.5,218.7 260.3,217.8 261.1,222.9 261.8,225.5 262.6,228.0 263.4,232.7 264.1,223.1 264.9,222.8 265.7,223.7 266.5,221.8 267.2,221.1 268.0,222.7 268.8,221.0 269.6,222.1 270.3,218.0 271.1,203.1 271.9,207.1 272.6,204.5 273.4,202.2 274.2,198.0 275.0,201.1 275.7,201.9 276.5,202.5 277.3,202.0 278.1,200.9 278.8,204.6 279.6,207.4 280.4,209.1 281.1,211.0 281.9,212.9 282.7,210.0 283.5,209.2 284.2,205.1 285.0,205.4 285.8,204.8 286.6,204.4 287.3,206.6 288.1,207.8 288.9,206.3 289.6,209.2 290.4,209.2 291.2,212.4 292.0,213.5 292.7,212.8 293.5,211.0 294.3,210.0 295.1,211.4 295.8,212.2 296.6,209.4 297.4,213.2 298.2,212.9 298.9,212.9 299.7,214.3 300.5,215.0 301.2,216.4 302.0,217.3 302.8,213.4 303.6,215.7 304.3,218.6 305.1,218.5 305.9,219.6 306.7,223.1 307.4,216.7 308.2,215.1 309.0,215.2 309.7,215.5 310.5,213.0 311.3,213.4 312.1,215.0 312.8,215.7 313.6,217.0 314.4,210.1 315.2,209.7 315.9,207.6 316.7,208.1 317.5,211.4 318.2,202.9 319.0,205.6 319.8,204.6 320.6,205.8 321.3,209.0 322.1,208.1 322.9,209.7 323.7,199.6 324.4,203.5 325.2,205.0 326.0,206.8 326.7,211.2 327.5,212.8 328.3,212.9 329.1,212.1 329.8,215.3 330.6,218.5 331.4,216.1 332.2,219.5 332.9,217.8 333.7,215.8 334.5,219.0 335.2,209.7 336.0,210.1 336.8,209.4 337.6,211.6 338.3,212.2 339.1,214.5 339.9,215.9 340.7,216.9 341.4,219.1 342.2,221.8 343.0,224.6 343.7,225.0 344.5,223.9 345.3,224.7 346.1,226.6 346.8,227.0 347.6,226.6 348.4,225.1 349.2,224.3 349.9,224.0 350.7,223.6 351.5,223.2 352.2,224.6 353.0,225.5 353.8,224.9 354.6,225.3 355.3,220.8 356.1,221.6 356.9,224.1 357.7,224.5 358.4,221.2 359.2,224.5 360.0,224.5 360.7,223.7 361.5,224.1 362.3,219.0 363.1,218.7 363.8,220.8 364.6,225.2 365.4,226.2 366.2,227.3 366.9,221.3 367.7,218.4 368.5,220.7 369.2,221.0 370.0,223.2 370.8,223.7 371.6,226.2 372.3,229.1 373.1,226.6 373.9,225.1 374.7,227.8 375.4,227.9 376.2,226.7 377.0,228.0 377.7,229.4 378.5,217.8 379.3,219.6 380.1,214.7 380.8,217.5 381.6,217.9 382.4,210.8 383.2,207.6 383.9,209.9 384.7,211.6 385.5,215.0 386.2,217.3 387.0,219.0 387.8,219.8 388.6,222.0 389.3,222.9 390.1,223.4 390.9,226.1 391.7,225.3 392.4,224.6 393.2,221.6 394.0,224.0 394.7,225.8 395.5,221.7 396.3,225.8 397.1,224.6 397.8,224.0 398.6,222.2 399.4,226.1 400.2,222.4 400.9,226.6 401.7,226.0 402.5,225.2 403.2,226.2 404.0,227.3 404.8,226.3 405.6,227.4 406.3,226.5 407.1,227.8 407.9,228.1 408.7,230.6 409.4,232.3 410.2,233.4 411.0,230.3 411.7,232.3 412.5,234.6 413.3,235.9 414.1,235.9 414.8,236.6 415.6,233.7 416.4,235.7 417.2,232.7 417.9,230.1 418.7,229.1 419.5,228.5 420.2,233.2 421.0,231.4 421.8,234.1 422.6,228.4 423.3,229.5 424.1,231.1 424.9,231.0 425.7,232.0 426.4,233.3 427.2,228.1 428.0,228.0 428.7,228.9 429.5,229.7 430.3,231.0 431.1,221.8 431.8,220.1 432.6,222.8 433.4,222.3 434.2,221.7 434.9,222.5 435.7,224.7 436.5,226.3 437.2,225.3 438.0,221.7 438.8,222.9 439.6,223.3 440.3,223.7 441.1,223.6 441.9,226.0 442.7,225.6 443.4,227.0 444.2,227.3 445.0,225.2 445.7,228.2 446.5,223.6 447.3,220.8 448.1,223.8 448.8,227.8 449.6,231.3 450.4,232.0 451.2,234.6 451.9,236.7 452.7,234.6 453.5,236.9 454.3,239.4 455.0,239.3 455.8,237.7 456.6,236.9 457.3,235.9 458.1,237.5 458.9,239.6 459.7,239.8 460.4,241.7 461.2,241.8 462.0,243.6 462.8,242.5 463.5,242.3 464.3,243.0 465.1,242.2 465.8,244.0 466.6,246.3 467.4,247.3 468.2,245.9 468.9,238.0 469.7,238.1 470.5,237.9 471.3,239.7 472.0,240.9 472.8,241.4 473.6,238.6 474.3,238.9 475.1,237.7 475.9,240.4 476.7,239.2 477.4,238.9 478.2,233.9 479.0,228.0 479.8,229.2 480.5,228.1 481.3,230.2 482.1,227.4 482.8,227.5 483.6,228.3 484.4,228.9 485.2,226.8 485.9,227.6 486.7,231.3 487.5,227.8 488.3,227.9 489.0,229.9 489.8,230.8 490.6,235.4 491.3,234.1 492.1,237.1 492.9,238.2 493.7,238.7 494.4,239.8 495.2,244.7 496.0,244.2 496.8,241.5 497.5,245.8 498.3,240.6 499.1,235.7 499.8,238.7 500.6,237.2 501.4,236.5 502.2,240.7 502.9,241.9 503.7,240.8 504.5,241.5 505.3,242.5 506.0,243.3 506.8,245.3 507.6,247.6 508.3,234.3 509.1,236.0 509.9,235.9 510.7,237.7 511.4,238.6 512.2,238.7 513.0,242.4 513.8,241.5 514.5,241.7 515.3,239.6 516.1,242.4 516.8,242.8 517.6,243.1 518.4,245.7 519.2,249.2 519.9,249.7 520.7,249.4 521.5,250.4 522.3,251.9 523.0,255.4 523.8,259.6 524.6,259.5 525.3,261.0 526.1,261.3 526.9,260.6 527.7,262.5 528.4,265.4 529.2,270.0 530.0,268.0 530.8,268.7 531.5,269.8 532.3,271.7 533.1,271.3 533.8,270.1 534.6,271.9 535.4,267.3 536.2,269.6 536.9,268.4 537.7,270.5 538.5,271.2 539.3,271.5 540.0,272.3 540.8,275.1 541.6,277.8 542.3,278.1 543.1,279.7 543.9,280.0 544.7,276.7 545.4,279.8 546.2,272.5 547.0,270.2 547.8,270.1 548.5,273.2 549.3,271.9 550.1,272.3 550.8,269.8 551.6,269.5 552.4,266.8 553.2,266.9 553.9,268.2 554.7,259.9 555.5,259.2 556.3,250.9 557.0,248.0 557.8,242.6 558.6,237.7 559.3,241.7 560.1,241.3 560.9,238.5 561.7,239.6 562.4,237.9 563.2,236.6 564.0,234.9 564.8,234.1 565.5,233.8 566.3,234.3 567.1,234.8 567.8,231.1 568.6,234.9 569.4,239.5 570.2,237.7 570.9,240.1 571.7,242.0 572.5,243.0 573.3,245.9 574.0,247.5 574.8,243.3 575.6,241.9 576.3,244.5 577.1,248.0 577.9,245.2 578.7,249.7 579.4,249.2 580.2,247.9 581.0,248.4 581.8,247.9 582.5,246.4 583.3,247.4 584.1,250.6 584.8,254.1 585.6,254.2 586.4,253.3 587.2,246.2 587.9,247.1 588.7,249.3 589.5,251.6 590.3,247.0 591.0,246.1 591.8,245.2 592.6,246.7 593.3,251.2 594.1,252.9 594.9,253.9 595.7,253.3 596.4,255.7 597.2,259.8 598.0,260.0 598.8,259.8 599.5,259.8 600.3,261.4 601.1,262.9 601.8,263.3 602.6,263.9 603.4,261.0 604.2,258.8 604.9,257.2 605.7,258.0 606.5,258.3 607.3,255.7 608.0,261.4 608.8,260.5 609.6,260.9 610.4,256.4 611.1,260.3 611.9,263.2 612.7,263.5 613.4,263.1 614.2,264.6 615.0,263.0 615.8,262.4 616.5,264.2 617.3,265.9 618.1,265.4 618.9,247.6 619.6,249.9 620.4,250.4 621.2,252.7 621.9,254.6 622.7,255.7 623.5,257.7 624.3,254.6 625.0,256.7 625.8,258.0 626.6,258.9 627.4,260.8 628.1,258.3 628.9,259.8 629.7,257.0 630.4,256.9 631.2,256.7 632.0,257.1 632.8,257.3 633.5,254.0 634.3,252.8 635.1,249.9 635.9,250.4 636.6,251.9 637.4,249.7 638.2,254.5 638.9,257.0 639.7,259.1 640.5,263.2 641.3,252.2 642.0,251.9 642.8,251.9 643.6,250.1 644.4,251.1 645.1,252.1 645.9,251.3 646.7,251.6 647.4,250.1 648.2,241.9 649.0,244.3 649.8,241.1 650.5,239.2 651.3,235.3 652.1,240.1 652.9,241.6 653.6,241.6 654.4,239.8 655.2,238.3 655.9,242.5 656.7,243.8 657.5,246.5 658.3,248.2 659.0,249.3 659.8,245.6 660.6,244.3 661.4,240.8 662.1,240.9 662.9,240.5 663.7,240.6 664.4,240.8 665.2,243.0 666.0,243.0 666.8,245.0 667.5,244.1 668.3,246.6 669.1,247.2 669.9,246.0 670.6,245.5 671.4,244.7 672.2,246.2 672.9,244.8 673.7,242.0 674.5,246.4 675.3,246.2 676.0,246.7 676.8,249.7 677.6,249.7 678.4,251.6 679.1,251.6 679.9,248.7 680.7,250.7 681.4,253.1 682.2,252.6 683.0,253.7 683.8,255.8 684.5,252.8 685.3,250.5 686.1,251.7 686.9,252.2 687.6,247.7 688.4,247.4 689.2,249.1 689.9,249.3 690.7,250.1 691.5,241.0 692.3,239.5 693.0,237.7 693.8,238.1 694.6,243.1 695.4,233.3 696.1,236.2 696.9,234.9 697.7,236.8 698.4,238.9 699.2,236.5 700.0,237.2 700.8,228.8 701.5,233.8 702.3,235.1 703.1,236.4 703.9,240.8 704.6,243.4 705.4,242.5 706.2,242.2 706.9,246.6 707.7,249.6 708.5,246.6 709.3,251.1 710.0,249.1 710.8,246.7 711.6,250.3 712.4,244.5 713.1,245.0 713.9,244.3 714.7,246.5 715.4,245.5 716.2,246.5 717.0,247.8 717.8,248.1 718.5,249.3 719.3,251.8 720.1,254.8 720.9,253.7 721.6,252.8 722.4,253.7 723.2,254.5 723.9,254.2 724.7,256.9 725.5,255.2 726.3,254.3 727.0,256.3 727.8,255.8 728.6,254.9 729.4,255.9 730.1,256.1 730.9,255.8 731.7,255.0 732.4,252.0 733.2,252.9 734.0,254.5 734.8,254.6 735.5,252.6 736.3,256.0 737.1,254.9 737.9,253.0 738.6,252.7 739.4,246.9 740.2,246.5 740.9,246.7 741.7,251.1 742.5,251.6 743.3,252.5 744.0,246.1 744.8,243.1 745.6,246.1 746.4,246.4 747.1,249.0 747.9,249.6 748.7,251.0 749.4,254.0 750.2,252.3 751.0,252.5 751.8,253.8 752.5,253.3 753.3,253.6 754.1,254.6 754.9,256.5 755.6,251.4 756.4,253.5 757.2,247.7 757.9,249.9 758.7,250.8 759.5,242.9 760.3,239.4 761.0,240.7 761.8,241.9 762.6,245.2 763.4,247.2 764.1,249.4 764.9,250.2 765.7,252.4 766.5,252.7 767.2,253.7 768.0,256.2 768.8,255.0 769.5,253.9 770.3,251.7 771.1,254.7 771.9,256.9 772.6,254.1 773.4,258.3 774.2,257.1 775.0,255.6 775.7,256.6 776.5,259.6 777.3,257.3 778.0,259.5 778.8,257.1 779.6,256.0 780.4,257.7 781.1,258.9 781.9,257.0 782.7,256.6 783.5,255.6 784.2,257.2 785.0,257.6 785.8,259.1 786.5,260.4 787.3,261.0 788.1,258.6 788.9,261.0 789.6,262.6 790.4,263.5 791.2,263.6 792.0,264.7 792.7,262.0 793.5,263.5 794.3,262.3 795.0,259.2 795.8,258.3 796.6,256.8 797.4,261.1 798.1,258.7 798.9,261.1 799.7,256.1 800.5,258.0 801.2,260.2 802.0,260.0 802.8,261.0 803.5,261.9 804.3,258.6 805.1,258.6 805.9,259.7 806.6,260.3 807.4,261.4 808.2,250.1 809.0,248.7 809.7,251.2 810.5,250.1 811.3,249.5 812.0,248.9 812.8,250.6 813.6,252.7 814.4,252.1 815.1,251.2 815.9,252.1 816.7,251.9 817.5,253.3 818.2,252.3 819.0,254.4 819.8,256.1 820.5,257.1 821.3,256.8 822.1,253.8 822.9,256.7 823.6,253.3 824.4,250.9 825.2,253.3 826.0,256.5 826.7,260.1 827.5,260.6 828.3,262.6 829.0,264.6 829.8,263.6 830.6,265.9 831.4,268.7 832.1,269.9 832.9,268.1 833.7,266.0 834.5,263.9 835.2,265.6 836.0,267.1" fill="none" stroke="#cf222e" stroke-width="2.2"/>
<line x1="730" y1="76" x2="752" y2="76" stroke="#cf222e" stroke-width="3"/>
<text x="758" y="80" font-family="SFMono-Regular,Consolas,Menlo,monospace" font-size="12" fill="#cf222e" text-anchor="start" font-weight="bold">Adam (train5)</text>
<text x="64" y="308" font-family="SFMono-Regular,Consolas,Menlo,monospace" font-size="11" fill="#6a737d" text-anchor="start">step 1</text>
<text x="836" y="308" font-family="SFMono-Regular,Consolas,Menlo,monospace" font-size="11" fill="#6a737d" text-anchor="end">step 1000</text>
</svg>